<svg id="Layer_5" enable-background="new 0 0 64 64" height="512" viewBox="0 0 64 64" width="512" xmlns="http://www.w3.org/2000/svg"><g><g><g><path d="m21.54 52.33 1.05.16c1.96.29 3.41 1.97 3.41 3.95v5.56h-20v-12l4 .6z" fill="#969faa"/></g><g><path d="m44 10h4v8h-4z" fill="#e6e9ed"/></g><g><path d="m44 10h-8.35c.23-.63.35-1.3.35-2s-.12-1.37-.35-2h13.35c.55 0 1 .45 1 1v2c0 .55-.45 1-1 1h-1z" fill="#aab2bd"/></g><g><path d="m27.77 13.57-9.91 10.96c-.68-3.66-3.85-6.45-7.69-6.53l13.85-9.56c.17 2.34 1.67 4.3 3.75 5.13z" fill="#aab2bd"/></g><g><path d="m21.54 52.33-11.54-1.73-4.34-17.88c1.25.81 2.74 1.28 4.34 1.28 2.27 0 4.33-.95 5.78-2.47z" fill="#aab2bd"/></g><g><circle cx="30" cy="8" fill="#ccd1d9" r="2"/></g><g><path d="m15.78 31.53c-1.45 1.52-3.51 2.47-5.78 2.47-1.6 0-3.09-.47-4.34-1.28v-.01c-2.2-1.41-3.66-3.89-3.66-6.71 0-4.42 3.58-8 8-8 .05 0 .1.01.16.01l.01-.01c3.84.08 7.01 2.87 7.69 6.53.09.48.14.97.14 1.47 0 2.15-.85 4.09-2.22 5.53z" fill="#fcd770"/></g><g><circle cx="10" cy="26" fill="#ccd1d9" r="4"/></g><g><path d="m35.65 6c.23.63.35 1.3.35 2s-.12 1.37-.35 2c-.81 2.33-3.04 4-5.65 4-.79 0-1.54-.15-2.23-.43-2.08-.83-3.58-2.79-3.75-5.13-.01-.14-.02-.29-.02-.44 0-3.31 2.69-6 6-6 2.61 0 4.84 1.67 5.65 4z" fill="#fcd770"/></g><g><path d="m52 20v2h-4-4-4v-2c0-1.1.9-2 2-2h2 4 2c1.1 0 2 .9 2 2z" fill="#ccd1d9"/></g><g><path d="m48 26v2c0 1.1-.9 2-2 2-.55 0-1.05-.22-1.41-.59-.37-.36-.59-.86-.59-1.41v-2-4h4z" fill="#e6e9ed"/></g><g><path d="m44 22v4h-6c-2.21 0-4 1.79-4 4v2c0 2.21 1.79 4 4 4v4c-4.42 0-8-3.58-8-8v-2c0-4.42 3.58-8 8-8h2z" fill="#e6e9ed"/></g><g><path d="m62 30v2c0 4.42-3.58 8-8 8v-4c2.21 0 4-1.79 4-4v-2c0-2.21-1.79-4-4-4h-6v-4h4 2c4.42 0 8 3.58 8 8z" fill="#e6e9ed"/></g><g><path d="m54 40v6c0 1.1-.9 2-2 2h-2-2-4-2-2c-1.1 0-2-.9-2-2v-6-4c0-1.1.9-2 2-2h2v6h4 4v-6h2c1.1 0 2 .9 2 2z" fill="#d3a06c"/></g><g><path d="m62 50v10c0 1.1-.9 2-2 2h-12c-1.1 0-2-.9-2-2v-10c0-1.1.9-2 2-2h2v6h4 4v-6h2c1.1 0 2 .9 2 2z" fill="#d3a06c"/></g><g><path d="m46 50v10c0 1.1-.9 2-2 2h-12c-1.1 0-2-.9-2-2v-10c0-1.1.9-2 2-2h2v6h4 4v-6h2c1.1 0 2 .9 2 2z" fill="#d3a06c"/></g><g><path d="m52 48h6v6h-4-4v-6z" fill="#b27946"/></g><g><path d="m34 48h6 2v6h-4-4z" fill="#b27946"/></g><g><path d="m42 34h8v6h-4-4z" fill="#b27946"/></g></g><g><path d="m55 40.941c4.493-.5 8-4.317 8-8.941v-2c0-4.962-4.037-9-9-9h-1v-1c0-1.654-1.346-3-3-3h-1v-6c1.103 0 2-.897 2-2v-2c0-1.103-.897-2-2-2h-12.685c-1.127-2.361-3.53-4-6.315-4-3.834 0-6.955 3.1-6.996 6.925l-13.159 9.083c-4.891.084-8.845 4.082-8.845 8.992 0 3.013 1.493 5.678 3.773 7.313l3.904 16.077-3.677-.551v14.161h22v-6.555c0-2.495-1.791-4.575-4.258-4.945l-.419-.063-5.436-19.655c1.317-1.566 2.113-3.582 2.113-5.782 0-.391-.033-.773-.082-1.15l9.157-10.125c.612.175 1.257.275 1.925.275 2.785 0 5.188-1.639 6.315-4h6.685v6h-1c-1.654 0-3 1.346-3 3v1h-1c-4.963 0-9 4.038-9 9v2c0 4.624 3.507 8.442 8 8.941v5.059c0 .352.072.686.184 1h-5.184c-1.654 0-3 1.346-3 3v10c0 1.654 1.346 3 3 3h12c.771 0 1.468-.301 2-.78.532.48 1.229.78 2 .78h12c1.654 0 3-1.346 3-3v-10c0-1.654-1.346-3-3-3h-5.184c.112-.314.184-.648.184-1zm-10-3.941v2h-2v-4h6v4h-2v-2zm-5-4c-1.259 0-2.336.782-2.78 1.884-1.275-.345-2.22-1.501-2.22-2.884v-2c0-1.654 1.346-3 3-3h5v1c0 1.654 1.346 3 3 3s3-1.346 3-3v-1h5c1.654 0 3 1.346 3 3v2c0 1.383-.945 2.538-2.22 2.884-.444-1.102-1.521-1.884-2.78-1.884zm7-10v5c0 .551-.448 1-1 1s-1-.449-1-1v-5zm14 7v2c0 3.519-2.614 6.432-6 6.92v-2.021c2.279-.465 4-2.484 4-4.899v-2c0-2.757-2.243-5-5-5h-5v-2h5c3.859 0 7 3.14 7 7zm-36 26.445v4.555h-18v-9.839l13.742 2.061.012.045.1-.028 1.591.239c1.481.222 2.555 1.47 2.555 2.967zm-14.187-6.734-3.689-15.19c.905.306 1.87.479 2.876.479 1.953 0 3.757-.632 5.234-1.693l4.924 17.805zm-.813-16.711c-3.859 0-7-3.14-7-7s3.141-7 7-7c.004 0 .008.001.013.001v.001l.035.001c3.837.026 6.952 3.153 6.952 6.997 0 3.86-3.141 7-7 7zm8.308-10.456c-1.01-2.417-3.044-4.302-5.558-5.11l10.583-7.306c.493 1.542 1.508 2.851 2.836 3.724zm11.692-9.544c-2.757 0-5-2.243-5-5s2.243-5 5-5 5 2.243 5 5-2.243 5-5 5zm6.92-6h12.08v2h-12.08c.047-.328.08-.66.08-1s-.033-.672-.08-1zm8.08 4h2v6h-2zm-4 9c0-.551.448-1 1-1h8c.552 0 1 .449 1 1v1h-10zm-10 12v-2c0-3.86 3.141-7 7-7h5v2h-5c-2.757 0-5 2.243-5 5v2c0 2.414 1.721 4.434 4 4.899v2.021c-3.386-.488-6-3.401-6-6.92zm6 19v2h-2v-4h5 1v4h-2v-2zm7 10h-12c-.552 0-1-.449-1-1v-10c0-.551.448-1 1-1h1v6h10v-6h1c.552 0 1 .449 1 1v10c0 .551-.448 1-1 1zm17-11v10c0 .551-.448 1-1 1h-12c-.552 0-1-.449-1-1v-10c0-.551.448-1 1-1h1v6h10v-6h1c.552 0 1 .449 1 1zm-8 1v2h-2v-4h1 5v4h-2v-2zm-5-4h-4-4c-.552 0-1-.449-1-1v-10c0-.551.448-1 1-1h1v6h10v-6h1c.552 0 1 .449 1 1v10c0 .551-.448 1-1 1z"/><path d="m30 5c-1.654 0-3 1.346-3 3s1.346 3 3 3 3-1.346 3-3-1.346-3-3-3zm0 4c-.552 0-1-.449-1-1s.448-1 1-1 1 .449 1 1-.448 1-1 1z"/><path d="m10 21c-2.757 0-5 2.243-5 5s2.243 5 5 5 5-2.243 5-5-2.243-5-5-5zm0 8c-1.654 0-3-1.346-3-3s1.346-3 3-3 3 1.346 3 3-1.346 3-3 3z"/></g></g></svg>