<svg id="Layer_1" enable-background="new 0 0 512.002 512.002" height="512" viewBox="0 0 512.002 512.002" width="512" xmlns="http://www.w3.org/2000/svg"><g><g fill="#020288"><path d="m189.819 293.073c3.906 3.905 10.237 3.905 14.143 0l67.883-67.884 43.164 43.165c3.906 3.905 10.238 3.906 14.143 0l71.848-71.848v15.857c.528 13.268 19.476 13.258 20 0v-40c0-5.523-4.478-10-10-10h-40c-13.268.529-13.258 19.476 0 20h15.858l-64.778 64.777-43.164-43.165c-3.725-3.873-10.418-3.873-14.143 0l-74.954 74.955c-3.905 3.906-3.905 10.237 0 14.143z"/><path d="m431.002 0h-260.001c-16.542 0-30 13.458-30 30v219.391c.528 13.268 19.476 13.258 20 0v-189.391h.001 71.714c4.127 11.641 15.248 20 28.285 20h80.001c13.037 0 24.158-8.359 28.285-20h71.714v392.002h-280v-37.612c-.528-13.268-19.476-13.258-20 0v67.612c0 16.542 13.458 30 30 30h260.001c16.541 0 29.999-13.458 29.999-30v-452.002c0-16.542-13.458-30-29.999-30zm-70.001 40c-5.522 0-10 4.477-10 10 0 5.514-4.485 10-9.999 10h-80.001c-5.514 0-9.999-4.486-9.999-10 0-5.523-4.478-10-10-10h-80-.001v-10c0-5.514 4.486-10 10-10h260.001c5.514 0 9.999 4.486 9.999 10v10zm80 442.002c0 5.514-4.485 10-9.999 10h-260.001c-5.514 0-10-4.486-10-10v-10h280z"/><path d="m401 402h-99.999c-13.268.529-13.258 19.476 0 20h99.999c13.268-.529 13.258-19.476 0-20z"/><path d="m401 361.999h-86.665c-13.268.529-13.258 19.476 0 20h86.665c13.268-.529 13.258-19.477 0-20z"/><path d="m401 321.998h-73.331c-13.268.529-13.258 19.476 0 20h73.331c13.268-.529 13.258-19.477 0-20z"/><path d="m201.003 130.001h99.998c13.268-.529 13.258-19.476 0-20h-99.998c-13.268.529-13.258 19.477 0 20z"/><path d="m201.003 170.003h86.665c13.268-.529 13.258-19.476 0-20h-86.665c-13.268.528-13.258 19.476 0 20z"/></g><path clip-rule="evenodd" d="m151.001 431.89c55.078 0 100-44.922 100-100-5.649-132.673-194.371-132.634-200 .001 0 55.078 44.922 99.999 100 99.999z" fill="#fff69b" fill-rule="evenodd"/><path d="m160.217 324.883-10.778-4.463c-5.051-2.093-7.458-7.905-5.365-12.958 1.005-2.427 2.914-4.325 5.375-5.345 2.463-1.019 5.155-1.027 7.581-.022l5.389 2.232c5.101 2.115 10.953-.309 13.065-5.412 2.114-5.102-.309-10.952-5.411-13.066l-5.39-2.232c-1.209-.501-2.438-.918-3.682-1.254v-5.473c-.528-13.268-19.476-13.258-20 0v7.092c-7.015 3.138-12.467 8.73-15.405 15.826-6.313 15.24.948 32.775 16.189 39.089l10.778 4.463c5.052 2.092 7.459 7.905 5.366 12.958-1.005 2.427-2.914 4.325-5.375 5.344-2.463 1.02-5.155 1.027-7.581.022l-5.389-2.232c-5.099-2.113-10.952.309-13.065 5.412-2.114 5.102.309 10.952 5.411 13.066l5.39 2.233c1.209.5 2.438.918 3.681 1.254v5.473c.528 13.268 19.476 13.258 20 0v-7.09c7.015-3.139 12.468-8.73 15.407-15.828 6.312-15.241-.951-32.776-16.191-39.089z" fill="#020288"/></g></svg>