<svg version="1.2" xmlns="http://www.w3.org/2000/svg" viewBox="0 0 512 512" width="512" height="512"><style>.a{fill:#e0e0e0}.b{fill:#ebebeb}.c{fill:#fafafa}.d{fill:#263238}.e{fill:#fff}.f{fill:#455a64}.g{fill:#ff725e}.h{fill:#ffbe9d}.i{fill:#eb996e}.j{opacity:.3}</style><path class="a" d="m175.1 308.2c-3.6-0.7-15.9 2.8-15.9 2.8 0 0 6.2-6.8 11-8.1 4.9-1.3 15.4 6 15.4 6 0 0-6.7 0.1-10.5-0.7z"/><path class="a" d="m190 312c-0.2 4.1-0.3 7.4-1.2 11.3-0.9 4-2.6 7.8-5.4 10.8-1.6-4-1.6-8.7 0.1-12.7 1.5-3.5 4.1-6.4 5.7-9.9z"/><path class="a" d="m175.1 323.3c0-0.2-7.2 12.4-7.2 12.4-3.2-11.7 0.6-16.7 4.4-21.3 3.8-4.5 15.7-5.1 15.2-3.7-0.9 2.8-12.4 12.7-12.4 12.6z"/><path class="a" d="m210.4 313.3c0 0-3 1.7-8.1 1.4-4.9-0.5-15.8-3.8-14.6-4.2 15.4-6 22.7 2.8 22.7 2.8z"/><path class="a" d="m252.3 352.5c4.7 1.8 10 12.9 10 12.9-5.7-0.5-11.8-8.4-13.2-9.9-1.5-1.5-6.7 0.6-6.7 0.6 0 0 6.8-4.7 9.9-3.6z"/><path class="a" d="m237.7 352.2c-2.7-2-5.2-6.1-5.2-6.1 0 0 7.1 1.4 9 3.5 2 2 2.2 5.9 2.2 5.9 0 0-3.4-1.3-6-3.3z"/><path class="a" d="m242.4 362.7c-1.8 3.7-8.5 6.6-8.7 7-0.1 0.4 1.2-5.4 3.8-9.9 2.6-4.5 6.2-4.5 6.2-4.5 0 0 0.4 3.7-1.3 7.4z"/><path class="a" d="m251.7 360.7c1.8 3.7-1.5 11.6-1.5 11.6 0 0-2.1-5.4-3.5-6.9-1.5-1.4-2.2-10.1-2.2-10.1 0 0 5.4 1.7 7.2 5.4z"/><path class="a" d="m211.6 384.2c-1.2 5.6-8.6 9-8.8 7.5-0.2-1.5-1.2-6.3 0-9.4 1.3-3.2 9.6-9.7 10-10.3 0 0 0 6.5-1.2 12.2z"/><path class="a" d="m223 372.5c3.7 4 2 17 2 17 0 0-5-3.9-7.7-7.5-2.7-3.5-2.8-13.8-2.8-14.8 0 0 4.8 1.3 8.5 5.3z"/><path class="a" d="m209.4 373.4c-2.1 2.5-13.6 8.2-13.6 8.2 0 0 2.1-4.9 5.7-9.2 3.6-4.3 11.2-3.6 11.8-3.5 0 0-1.8 2-3.9 4.5z"/><path class="a" d="m218.4 364.2c0 0 3.2-2.3 6.5-0.1 3.4 2.1 9.1 10.3 9.1 10.3 0 0-6.9-0.5-10.6-3.9-3.6-3.4-5-6.3-5-6.3z"/><path class="a" d="m204 365.5c-6.8 0.6-11.4-2.9-11.4-2.9 0 0 9.8-2.5 13.2-1.6 3.4 0.8 7.7 4.5 7.7 4.5 0 0-2.7-0.6-9.5 0z"/><path class="a" d="m206.5 411.9c2.7 5.8-2.7 11.1-2.7 11.1 0 0-1.7-6.7-4.8-10.1-3.2-3.3 0-9.4 0-9.4 0 0 4.8 2.5 7.5 8.4z"/><path class="a" d="m195.8 418.5c-1.7 5.5-7.7 11.1-8.6 11.7-0.8 0.6-0.4-8.4 0-13.6 0.5-5.2 5.9-12.5 6.7-13 0 0 3.6 9.4 1.9 14.9z"/><path class="a" d="m185.2 412.2c-2.7 3.2-14.3 9.1-14.3 9.1 0 0 3.4-8.2 7.8-13.8 4.4-5.7 12.3-4.2 13.2-4.5 0 0-4 5.9-6.7 9.2z"/><path class="a" d="m243.1 401c2.3 3.3-1.2 15.9-1.2 15.9 0 0-2.7-4.2-5.1-10.5-2.4-6.2 0-13.4 0-13.4 0 0 4 4.6 6.3 8z"/><path class="a" d="m251.4 394.4c3 4 5 13.5 5 13.5 0 0 5.7 1.8-1 0.5-6.7-1.3-16.5-15.3-17.3-16.1 0 0 10.3-1.8 13.3 2.1z"/><path class="a" d="m236.6 392c0 0 7.2-5 10.1-6.3 2.9-1.3 12.1 0.4 12.1 0.4 0 0-11.3 5.9-14 5.3-2.8-0.6-8.2 1.8-8.2 1.8"/><path class="a" d="m261.8 336.4l-2.8 9.2c0 0-1.8-5.1-2.7-10.3-0.8-5.1 5.5-11.8 5.5-11.8z"/><path class="a" d="m273.4 334.3c4.4 7.7-1.6 13.1-2.1 13.7-0.4 0.6-4.3-7.3-7.2-11.5-2.9-4.1-1.5-14.3-1.5-14.3 0 0 6.5 4.4 10.8 12.1z"/><path class="a" d="m253.4 329c-3.7 2.2-7.1 5.8-7.1 5.8 0 0 1.3-4.1 2.8-9 1.4-4.7 11.4-1.8 11.4-1.8 0 0-3.3 2.7-7.1 5z"/><path class="a" d="m215.5 326.7c0 0 0.4-0.3 0.9-0.7 2.4-2.1 9.2-7.6 12.7-6.8 4.3 1.1 10.1 3.8 10.1 3.8 0 0-15.1 7.8-23.7 3.7z"/><path class="a" d="m204.4 335.7c0 0 0.6-2.6 4.6-6.7 4-4.2 8.6-3 8.6-2.2-0.3 7.1-13.2 8.9-13.2 8.9z"/><path class="a" d="m222.4 337.9c1.8 5.7 0 10.4 0 10.4 0 0-3.1-5-6.6-10.2-3.5-5.2 1.1-10.5 1.1-10.5 0 0 3.7 4.7 5.5 10.3z"/><path class="a" d="m232.9 349.9c-1.6-1.4-2.8-2.5-4.2-5.8-1.6-3.3-8.1-13.9-8.1-13.9h1.2c13.8-1.1 12.1 9.3 12.3 10.6 0.2 1.3 0.4 10.5-1.2 9.1z"/><path class="a" d="m236.8 394.1c-1.4-1.3-2.7-2.7-3.7-4.5-0.9-1.7-1.3-3.8-0.7-5.7 0-0.2 0.1-0.4 0.3-0.5 0.3-0.1 0.6 0.1 0.8 0.3 2.3 2.4 3.5 5.6 3.2 8.9"/><path class="a" d="m198.6 403c-4.8-0.7-9.4-3.4-12.4-7.3-0.6-0.8-1.2-1.8-1-2.8 0-0.5 0.3-1 0.8-1.1 0.3-0.1 0.7 0.1 0.9 0.2 4.7 2 8.7 5.7 11.2 10.2"/><path class="a" d="m253.1 386.8c0 0.1-0.8 0.1-2 0.3-1.3 0.1-3.1 0.4-5.2 1.3-2.1 0.8-4.5 2.1-6.9 3.9-2.4 1.7-4.8 4-7.3 6.4-5 4.9-9.4 9.4-12.4 12.8-1.5 1.7-2.8 3.1-3.6 4.1q-0.5 0.6-1 1-0.3 0.4-0.3 0.4 0 0 0.3-0.4 0.3-0.4 0.8-1.2c0.9-1 2-2.4 3.5-4.2 3-3.4 7.4-7.9 12.4-12.8 2.4-2.4 4.9-4.7 7.4-6.5 2.4-1.8 4.9-3 7-3.9 2.2-0.7 4-1.1 5.3-1.2q1 0 1.5 0 0.5 0 0.5 0z"/><path class="a" d="m214.1 414c0 0.1-0.8-1.3-2.6-3.3-1.8-1.9-4.7-4.2-8.3-5.6-3.8-1.5-7.4-1.7-10-1.5-2.6 0.2-4.2 0.6-4.2 0.5 0 0 0.4-0.1 1.1-0.3 0.7-0.2 1.8-0.4 3.1-0.6 2.6-0.3 6.4 0 10.1 1.4 3.8 1.5 6.7 3.9 8.4 5.9 0.9 1 1.5 1.9 1.9 2.5 0.4 0.6 0.5 1 0.5 1z"/><path class="a" d="m216.8 326.6q0.1 0 0 0.3 0 0.4 0 0.9-0.2 1.2-0.4 3.3c-0.3 2.9-0.7 7.1-1.2 12.4-0.9 10.4-2 24.8-1.9 40.8 0 15.9 1.1 30.3 1.9 40.8 0.5 5.1 0.8 9.3 1 12.3q0.2 2.2 0.3 3.4 0 0.5 0 0.8 0 0.3 0 0.3 0 0 0-0.3-0.1-0.3-0.1-0.8-0.1-1.2-0.4-3.4c-0.3-2.9-0.7-7.1-1.2-12.3-0.8-10.4-2-24.8-2.1-40.8 0-16 1.2-30.4 2.2-40.9 0.5-5.2 1-9.4 1.3-12.3q0.3-2.1 0.4-3.3 0.1-0.5 0.2-0.9 0-0.3 0-0.3z"/><path class="a" d="m248.1 354.7c0 0-0.5 0.1-1.4 0.2-1 0.1-2.3 0.3-4 0.6-3.3 0.5-7.9 1.5-12.8 3.2-4.9 1.7-9.1 3.8-12.1 5.5-1.4 0.8-2.6 1.5-3.4 2-0.8 0.5-1.3 0.8-1.3 0.8 0-0.1 0.4-0.4 1.2-1 0.8-0.5 2-1.3 3.4-2.2 2.9-1.7 7.1-3.8 12-5.6 5-1.7 9.5-2.7 12.9-3.1 1.7-0.2 3.1-0.3 4-0.4 1 0 1.5 0 1.5 0z"/><path class="a" d="m214.2 350.1q0 0-0.1-0.6-0.1-0.6-0.3-1.6c-0.1-0.7-0.2-1.6-0.5-2.6-0.2-0.9-0.4-2-0.9-3.2q-0.2-1-0.6-1.9c-0.1-0.7-0.5-1.4-0.7-2.1-0.5-1.3-1.2-2.8-1.9-4.3-1.6-2.9-3.6-6-6-9-5-6-10.5-10.4-14.7-13.3-1-0.7-2-1.3-2.8-1.9-0.8-0.5-1.6-1-2.2-1.3q-0.9-0.5-1.4-0.9-0.5-0.3-0.5-0.3 0 0 0.5 0.2 0.6 0.3 1.5 0.8 0.9 0.5 2.2 1.3c0.9 0.5 1.9 1.1 2.9 1.8 4.2 2.8 9.9 7.2 14.8 13.2 2.5 3.1 4.5 6.2 6 9.2 0.8 1.5 1.5 3 2 4.4 0.2 0.7 0.6 1.4 0.7 2q0.3 1 0.6 2c0.4 1.2 0.6 2.3 0.8 3.3 0.3 1 0.4 1.8 0.4 2.6q0.1 0.9 0.2 1.6 0 0.5 0 0.6z"/><path class="a" d="m263.3 323.1q0 0-0.5 0.2-0.6 0.2-1.5 0.5c-1.4 0.5-3.3 1.3-5.7 2.2-4.7 1.9-11.1 4.8-17.9 8.5-6.8 3.8-12.7 7.7-16.8 10.7-2.1 1.4-3.8 2.7-4.9 3.6q-0.8 0.6-1.3 1-0.5 0.3-0.5 0.3 0-0.1 0.5-0.4 0.5-0.4 1.2-1.1 1.7-1.4 4.8-3.8c4-3 9.9-6.9 16.7-10.7 6.9-3.8 13.4-6.6 18.1-8.4 2.4-0.9 4.4-1.6 5.7-2q1-0.3 1.6-0.5 0.5-0.2 0.5-0.1z"/><path class="a" d="m234.4 488.8h-39.4l-4.2-48.2h48.2z"/><path class="a" d="m187.8 440.6h54.4v7.4h-54.4z"/><path class="b" d="m241.8 448c0 0.1-12.2 0.3-27.1 0.3-15 0-27.2-0.2-27.2-0.3 0-0.1 12.2-0.2 27.2-0.2 14.9 0 27.1 0.1 27.1 0.2z"/><path class="b" d="m407.9 447.2l33.5 0.3-0.3 42.2-33.5-0.2z"/><path class="c" d="m428.3 448.7l-0.6 40.9h-5.3l1.2-40.9z"/><path class="a" d="m388.7 448.4l19.2 0.2 33.5 0.3-33.5 4.3-0.3 36.3-19.2-0.1z"/><path class="c" d="m399.2 448.5l-0.8 40.9h-5.7l0.9-40.9z"/><path class="a" d="m414.4 436.1c0 0.2-0.6 0.5-1.6 0.7-1 0.3-2.6 0.5-4.5 0.6-0.9 0-1.9 0.1-3.1 0q-0.9-0.1-1.8-0.2c-0.6-0.1-1.2-0.2-1.9-0.4-0.4-0.2-0.8-0.3-1.2-0.6-0.5-0.2-0.9-0.6-1.3-1.2-0.4-0.5-0.6-1.2-0.6-1.8 0-0.6 0.1-1 0.2-1.4 0.3-1.3 0.6-2.8 1.3-4.2 0.3-0.8 0.7-1.5 1.2-2.2q0.4-0.5 0.8-1 0.5-0.5 1.1-0.9c0.5-0.3 1-0.5 1.6-0.6 0.5-0.1 1.2-0.1 1.7 0.1 1.1 0.2 1.8 0.8 2.3 1.2 2 1.7 3.4 3.7 4.4 5.4 0.9 1.8 1.3 3.3 1.4 4.4 0.2 1.1 0 1.8-0.2 1.8-0.5 0.1-1.3-2-3.4-4.7-1.1-1.4-2.5-2.9-4.3-4.1-0.5-0.4-0.8-0.5-1-0.6-0.1 0-0.1 0-0.2 0.1q-0.1 0-0.3 0.1-0.2 0.1-0.4 0.4c-0.1 0.1-0.3 0.4-0.5 0.6q-0.4 0.6-0.8 1.4c-0.5 1.1-0.8 2.4-1.1 3.6-0.1 0.3-0.1 0.5-0.1 0.6 0 0-0.1 0-0.2 0-0.1 0-0.1 0.1 0 0 0 0 0.1 0 0.1-0.1q0 0 0 0.1 0.1 0 0.1 0c0.1 0.1 0.3 0.2 0.5 0.3 0.4 0.2 1 0.3 1.5 0.4q0.7 0.3 1.5 0.4c1 0.2 2 0.4 2.8 0.5 1.8 0.2 3.3 0.4 4.4 0.6 1 0.2 1.6 0.4 1.6 0.7z"/><path class="b" d="m413.7 436.4c-0.1-0.6 2.4-1.4 6.3-2.5 1.9-0.6 4.2-1.3 6.6-2.4 0.6-0.2 1.1-0.5 1.4-0.8 0.2-0.1 0.3-0.2 0.2-0.2 0 0 0 0.2 0 0.1 0-0.1-0.1-0.3-0.3-0.6q-0.2-0.5-0.5-1-0.4-1-0.9-1.8-0.6-0.8-1.2-1.4-0.4-0.3-0.8-0.6-0.2-0.2-0.6-0.3c-0.3-0.2-0.6-0.2-0.9-0.1-0.4 0.1-0.7 0.3-1.2 0.7-1.9 1.6-3.5 3.4-4.6 5-2.2 3.2-2.8 5.6-3.4 5.6-0.2-0.1-0.4-0.7-0.3-2 0.1-1.2 0.5-3 1.4-5 1-2 2.5-4.2 4.6-6.2 0.6-0.5 1.3-1.1 2.4-1.5 1.1-0.4 2.3-0.3 3.3 0q0.8 0.3 1.4 0.7 0.6 0.4 1.1 0.9 1.1 1 1.9 2.1c0.5 0.8 0.8 1.5 1.2 2.3q0.2 0.5 0.5 1c0.2 0.4 0.4 0.9 0.5 1.6 0.1 0.7 0 1.5-0.4 2.2-0.4 0.7-0.8 1.1-1.2 1.4-0.8 0.6-1.6 0.9-2.3 1.1-2.8 1-5.3 1.5-7.3 1.8-4.2 0.5-6.8 0.3-6.9-0.1z"/><path class="a" d="m382.7 434.4l49.2 0.4-0.1 13.9-49.2-0.3z"/><path class="b" d="m400.9 434.6l44.4 0.3-0.1 14-44.5-0.4z"/><path class="c" d="m431.6 434.8l-0.2 14-5.2-0.1 0.3-14z"/><path class="c" d="m394.8 434.6l-0.5 13.9-5.7-0.1 0.3-14z"/><path class="b" d="m444.9 465.7l18.9 0.1-0.2 23.9-19-0.1z"/><path class="c" d="m456.4 466.5l-0.4 23.2h-3l0.7-23.2z"/><path class="a" d="m433.9 466.3l11 0.1 18.9 0.1-19 2.6-0.2 20.5-10.8-0.1z"/><path class="c" d="m439.9 466.4l-0.4 23.2-3.3-0.1 0.5-23.1z"/><path class="a" d="m448.5 459.3c0 0.4-1.2 0.8-3.4 1-1.1 0.1-2.4 0.1-4-0.4-0.4-0.1-1-0.3-1.5-1-0.3-0.4-0.4-0.8-0.4-1.2 0-0.3 0-0.6 0.1-0.9 0.2-0.7 0.4-1.5 0.8-2.4q0.2-0.6 0.7-1.3c0.2-0.4 0.6-0.8 1.2-1.1 0.5-0.4 1.3-0.5 2-0.4 0.6 0.3 1.1 0.6 1.3 0.8 1.2 1 2.1 2.1 2.6 3.2 1 2 0.8 3.5 0.5 3.6-0.4 0.1-0.9-1.1-2.1-2.6-0.6-0.8-1.4-1.5-2.4-2.2-0.2-0.2-0.5-0.3-0.5-0.3v0.1q0 0-0.1 0-0.1 0.1-0.4 0.5-0.2 0.3-0.4 0.8c-0.3 0.6-0.5 1.3-0.6 1.9l-0.1 0.3c0 0-0.2 0-0.2 0q-0.1 0-0.1 0c-0.1 0.1-0.1 0.1-0.1 0.1q0.1-0.1 0.2-0.2v-0.1q0 0 0.1 0c0 0 0.1 0.1 0.2 0.1 1 0.4 2.3 0.6 3.2 0.8 2.1 0.3 3.4 0.6 3.4 0.9z"/><path class="a" d="m448.1 459.5c-0.1-0.4 1.3-0.9 3.5-1.6 1.1-0.4 2.4-0.9 3.7-1.5 0.3-0.1 0.6-0.3 0.7-0.4q0.1-0.1 0 0c-0.1 0.1-0.1 0.3-0.1 0.3q-0.1-0.4-0.3-0.8-0.3-0.5-0.6-1-0.3-0.4-0.6-0.7c-0.2-0.2-0.5-0.4-0.6-0.5-0.2 0-0.2 0-0.3 0-0.1 0-0.3 0.1-0.6 0.3-1.1 0.9-1.9 1.8-2.6 2.7-1.2 1.7-1.7 3.1-2.1 3-0.4 0-0.7-1.7 0.4-4.1 0.5-1.1 1.3-2.4 2.6-3.6 0.3-0.3 0.8-0.7 1.5-0.9 0.6-0.3 1.4-0.2 2 0q0.5 0.2 0.9 0.4 0.4 0.3 0.7 0.5c0.5 0.4 0.8 0.9 1.1 1.3 0.3 0.5 0.6 0.9 0.7 1.4l0.4 0.6c0 0.2 0.2 0.5 0.2 0.9 0.1 0.5 0 1.1-0.2 1.5-0.3 0.5-0.6 0.7-0.8 0.9-0.6 0.4-1 0.5-1.4 0.7-1.6 0.5-3 0.8-4.2 0.9-2.4 0.2-3.9 0.1-4-0.3z"/><path class="a" d="m430.6 458.4l27.9 0.2-0.1 7.9-27.9-0.2z"/><path class="b" d="m440.8 458.5l25.2 0.2v7.9l-25.2-0.2z"/><path class="c" d="m458.3 458.6l-0.2 7.9h-2.9l0.2-7.9z"/><path class="c" d="m437.4 458.5l-0.3 7.9-3.2-0.1 0.1-7.9z"/><path class="a" d="m34 28.4h144.6v239.3h-144.6z"/><path class="b" d="m29.2 28.4h144.6v239.3h-144.6z"/><path class="c" d="m35.4 33.3h132.2v229.5h-132.2z"/><path class="b" d="m60.5 63.1h81.3v169.9h-81.3z"/><path class="a" d="m60.5 172.9c-0.2-15.9 14.1-31.4 29.9-33.6 7.4-1 15.4 0.4 22.4-2.5 12.5-5 16.5-21.7 29-26.6l0.6 122.8h-81.9z"/><path class="d" d="m259.5 490c-133 0-240.5-0.1-240.5-0.3 0-0.1 107.5-0.2 240.5-0.2 133 0 240.5 0.1 240.5 0.2 0 0.2-107.5 0.3-240.5 0.3z"/><path class="d" d="m217.8 74.8c0-12.8 10.3-23.1 23.1-23.1h204.4c12.7 0 23.1 10.3 23.1 23.1v313.3c0 12.8-10.4 23.1-23.1 23.1h-204.4c-12.8 0-23.1-10.3-23.1-23.1z"/><path class="e" d="m459.9 376.8l-234.7-0.1 0.2-300.2 234.6 0.1z"/><path class="f" d="m343 402.7c-5.3 0-9.6-4.3-9.6-9.6 0-5.3 4.3-9.6 9.6-9.6 5.3 0 9.6 4.3 9.6 9.6 0 5.3-4.3 9.6-9.6 9.6z"/><path class="f" d="m305.5 64.1c0-1.1 0.9-2 2-2h71.4c1.1 0 2 0.9 2 2 0 1.1-0.9 2-2 2h-71.4c-1.1 0-2-0.9-2-2z"/><path class="a" d="m450 335.2c-1.6 0-2.8-1.3-2.8-2.8l0.1-213.1c0-1.6 1.2-2.8 2.8-2.8 1.5 0 2.8 1.2 2.8 2.8l-0.1 213.1c0 1.5-1.3 2.8-2.8 2.8z"/><path class="d" d="m343.2 101.4c-26.9 0-48.6-0.1-48.6-0.3 0-0.2 21.7-0.3 48.6-0.3 26.9 0 48.6 0.1 48.6 0.3 0 0.2-21.7 0.3-48.6 0.3z"/><path class="d" d="m248.1 106.5q0 0 0.3 0 0.4 0 0.9 0 1.2 0 3.2-0.1l-0.1 0.1q-0.1-1.1-0.1-2.3c0-0.5 0-0.8 0-1.4 0.2-0.5 0.6-0.9 1.1-1 0.6 0 1 0 1.6 0 0.6 0.1 1.1 0.6 1.1 1.3q0 1.6 0 3.4l-0.2-0.2q2 0 4.1 0l-0.2 0.1q0-2.4 0-5-0.1-0.7-0.1-1.3c0-0.4-0.2-0.6-0.5-0.9q-0.9-0.9-1.8-1.8-0.8-0.9-1.7-1.7-0.4-0.4-0.8-0.8c-0.3-0.3-0.5-0.5-0.9-0.6-0.3-0.1-0.6 0-0.9 0.2-0.2 0.2-0.5 0.5-0.7 0.7q-0.8 0.7-1.5 1.4c-0.9 1-1.8 1.9-2.5 2.7-0.3 0.5-0.2 1-0.3 1.5q0 0.8 0 1.4 0 1.3 0 2.3 0 0.9 0 1.5 0 0.5 0 0.5 0 0-0.1-0.5 0-0.6 0-1.4 0-1 0-2.3-0.1-0.7-0.1-1.4 0-0.5 0-0.9c0-0.2 0.1-0.6 0.2-0.8 0.8-1 1.7-1.7 2.6-2.7q0.7-0.7 1.4-1.5c0.3-0.3 0.5-0.5 0.8-0.8 0.4-0.2 0.8-0.3 1.2-0.2 0.5 0.1 0.8 0.4 1 0.7q0.4 0.4 0.9 0.8 0.8 0.8 1.6 1.7 0.9 0.8 1.8 1.7c0.3 0.3 0.7 0.7 0.7 1.2q0 0.6 0 1.3 0.1 2.6 0.1 5v0.2h-0.2q-2.1 0-4.1 0h-0.2v-0.1q0-1.8 0-3.4c0-0.5-0.3-0.9-0.8-1-0.4 0-1 0-1.4 0-0.4 0.1-0.8 0.4-0.9 0.8 0 0.4 0 0.8 0 1.3q0 1.2 0 2.3v0.1h-0.1q-2 0-3.3 0-0.5 0-0.8-0.1-0.3 0-0.3 0z"/><path fill-rule="evenodd" class="d" d="m433.8 95.8l-0.4 2.4-0.8 4.3q0 0.1-0.2 0.2l-11-0.2 0.3 1.9 10.4 0.1c0.3 0 0.4 0.1 0.4 0.2 0 0.2-0.1 0.2-0.4 0.2h-2.9l-7.8-0.1q-0.1 0-0.1-0.1l-1.4-10.5h-2.4c-0.2 0-0.4 0-0.4-0.2 0-0.1 0.2-0.1 0.4-0.1l2.6-0.1c0.1 0 0.2 0.1 0.2 0.2l0.2 1.1v0.5h0.8 2.8 9.6q0.1 0 0.1 0.1 0 0.1 0 0.1zm-12.4 6.4h0.6 2.3 7.9l1.1-6.1-12.7-0.2z"/><path fill-rule="evenodd" class="d" d="m424.3 107.6c0.1 0.1 0 0.2 0 0.3 0 0.1-0.1 0.4-0.4 0.7q-0.3 0.3-0.8 0.3-0.2 0-0.5-0.1c-0.4-0.1-0.8-0.6-0.8-1.2 0-0.6 0.3-1.1 0.8-1.3 0.6-0.2 1 0.1 1.3 0.2 0.3 0.3 0.4 0.6 0.4 0.8 0 0.1 0.1 0.2 0 0.3zm-0.7 0.7c0.2-0.2 0.3-0.4 0.3-0.5q0.1-0.1 0.1-0.2 0 0 0 0 0-0.1-0.1-0.2 0-0.2-0.3-0.5c-0.1-0.1-0.3-0.2-0.5-0.2q-0.1 0-0.3 0c-0.3 0.2-0.5 0.5-0.5 0.9 0 0.4 0.2 0.7 0.5 0.8 0.3 0.1 0.7 0 0.8-0.1z"/><path fill-rule="evenodd" class="d" d="m431.3 107.6c0.1 0.1 0 0.2 0 0.4 0 0.1-0.1 0.4-0.4 0.7-0.2 0.1-0.5 0.2-0.8 0.2q-0.3 0-0.5 0c-0.4-0.2-0.8-0.7-0.8-1.3 0-0.5 0.3-1 0.9-1.2 0.5-0.2 1 0 1.2 0.2 0.3 0.3 0.4 0.6 0.4 0.8 0 0 0.1 0.2 0 0.2zm-0.7 0.7c0.2-0.1 0.3-0.3 0.3-0.5q0.1-0.1 0.1-0.1 0 0 0-0.1 0 0 0-0.2c-0.1-0.1-0.2-0.3-0.4-0.4-0.1-0.1-0.3-0.3-0.5-0.3q-0.1 0-0.3 0.1c-0.3 0.1-0.6 0.4-0.6 0.8 0 0.4 0.3 0.7 0.6 0.8 0.3 0.2 0.6 0 0.8-0.1z"/><path fill-rule="evenodd" class="d" d="m285.2 344.6c0 1.5-1.1 2.4-3 2.4h-2v2.3h-0.7v-7.2h2.7c1.9 0 3 0.9 3 2.5zm-0.8 0c0-1.2-0.8-1.9-2.2-1.9h-2v3.7h2c1.4 0 2.2-0.7 2.2-1.8z"/><path class="d" d="m291.7 343.9v5.4h-0.7v-1c-0.4 0.7-1.1 1.1-2 1.1-1.3 0-2.3-0.8-2.3-2.4v-3.1h0.8v3.1c0 1.1 0.6 1.7 1.6 1.7 1.1 0 1.9-0.7 1.9-1.9v-2.9z"/><path class="d" d="m296.5 343.9v0.7q0 0-0.1 0c-1.2 0-1.9 0.7-1.9 2v2.7h-0.7v-5.4h0.7v1.1c0.3-0.8 1-1.1 2-1.1z"/><path class="d" d="m297.3 346.6c0-1.6 1.1-2.7 2.8-2.7 0.9 0 1.7 0.3 2.1 1.1l-0.6 0.3c-0.3-0.6-0.9-0.8-1.5-0.8-1.2 0-2.1 0.8-2.1 2.1 0 1.3 0.9 2.1 2.1 2.1 0.6 0 1.2-0.2 1.5-0.7l0.6 0.3c-0.4 0.8-1.2 1.1-2.1 1.1-1.7 0-2.8-1.2-2.8-2.8z"/><path class="d" d="m308.6 346.2v3.2h-0.7v-3.1c0-1.2-0.6-1.8-1.7-1.8-1.2 0-1.9 0.7-1.9 2v2.9h-0.7v-7.8h0.7v3.2c0.4-0.6 1.1-0.9 2-0.9 1.4 0 2.3 0.7 2.3 2.3z"/><path fill-rule="evenodd" class="d" d="m314.8 346l-0.1 3.4h-0.7v-0.9c-0.3 0.6-0.9 0.9-1.9 0.9-1.2 0-1.9-0.6-1.9-1.6 0-0.8 0.5-1.5 2-1.5h1.8v-0.4c0-0.9-0.6-1.4-1.5-1.4-0.8 0-1.4 0.2-1.9 0.6l-0.3-0.5c0.5-0.5 1.3-0.7 2.2-0.7 1.4 0 2.3 0.7 2.3 2.1zm-0.8 1.7v-0.9h-1.7c-1.1 0-1.4 0.4-1.4 1 0 0.7 0.5 1 1.3 1 0.9 0 1.5-0.3 1.8-1.1z"/><path class="d" d="m316 348.7l0.3-0.5c0.4 0.3 1.2 0.6 1.9 0.6 1.1 0 1.5-0.4 1.5-0.9 0-1.5-3.5-0.3-3.5-2.5 0-0.9 0.7-1.5 2.2-1.5 0.6 0 1.4 0.2 1.9 0.5l-0.4 0.6c-0.5-0.4-1-0.5-1.5-0.5-1.1 0-1.5 0.4-1.5 0.9 0 1.5 3.5 0.4 3.5 2.5 0 0.9-0.8 1.5-2.2 1.5-0.9 0-1.8-0.3-2.2-0.7z"/><path fill-rule="evenodd" class="d" d="m326.5 346.9h-4.5c0.1 1.1 0.9 1.9 2.1 1.9 0.7 0 1.3-0.3 1.7-0.7l0.4 0.4c-0.5 0.6-1.2 0.9-2.1 0.9-1.7 0-2.9-1.2-2.9-2.8 0-1.6 1.2-2.7 2.7-2.7 1.6 0 2.6 1.1 2.6 2.7q0 0.2 0 0.3zm-4.5-0.6h3.9c-0.1-1.1-0.9-1.8-2-1.8-1 0-1.8 0.7-1.9 1.8z"/><path class="d" d="m338.8 343.9l-2 5.5h-0.8l-1.6-4.5-1.8 4.5h-0.7l-2-5.5h0.7l1.7 4.7 1.7-4.7h0.7l1.7 4.7 1.7-4.7z"/><path fill-rule="evenodd" class="d" d="m343.9 346v3.4h-0.7v-0.9c-0.4 0.6-1 0.9-1.9 0.9-1.3 0-2-0.6-2-1.5 0-0.9 0.6-1.6 2.1-1.6h1.7v-0.4c0-0.9-0.5-1.4-1.5-1.4-0.7 0-1.4 0.2-1.8 0.7l-0.4-0.6c0.6-0.5 1.4-0.7 2.3-0.7 1.4 0 2.2 0.7 2.2 2.1zm-0.8 1.7v-0.8h-1.6c-1.1 0-1.5 0.3-1.5 0.9 0 0.7 0.5 1 1.4 1 0.8 0 1.5-0.3 1.7-1.1z"/><path class="d" d="m345.1 348.8l0.3-0.6c0.5 0.3 1.2 0.6 2 0.6 1 0 1.5-0.3 1.5-0.9 0-1.4-3.6-0.3-3.6-2.5 0-0.9 0.8-1.5 2.2-1.5 0.7 0 1.4 0.2 1.9 0.5l-0.3 0.6c-0.5-0.4-1-0.5-1.6-0.5-1 0-1.5 0.4-1.5 0.9 0 1.5 3.6 0.4 3.6 2.5 0 0.9-0.8 1.5-2.3 1.5-0.9 0-1.8-0.2-2.2-0.6z"/><path class="d" d="m352.9 348.8l0.3-0.6c0.5 0.3 1.2 0.6 2 0.6 1 0 1.5-0.3 1.5-0.9 0-1.4-3.6-0.3-3.6-2.5 0-0.9 0.8-1.5 2.2-1.5 0.7 0 1.4 0.2 1.9 0.5l-0.3 0.6c-0.5-0.4-1-0.5-1.6-0.5-1 0-1.5 0.4-1.5 0.9 0 1.5 3.6 0.4 3.6 2.5 0 0.9-0.8 1.5-2.2 1.5-1 0-1.8-0.2-2.3-0.6z"/><path class="d" d="m363.7 343.9v5.5h-0.7v-1c-0.4 0.7-1.1 1-2 1-1.4 0-2.3-0.7-2.3-2.3v-3.2h0.8v3.1c0 1.2 0.6 1.8 1.6 1.8 1.1 0 1.9-0.8 1.9-2v-2.9z"/><path class="d" d="m365.2 346.6c0-1.6 1.2-2.7 2.8-2.7 0.9 0 1.7 0.3 2.2 1.1l-0.6 0.3c-0.4-0.5-1-0.8-1.6-0.8-1.2 0-2 0.9-2 2.1 0 1.4 0.8 2.2 2 2.2 0.6 0 1.2-0.2 1.6-0.8l0.6 0.3c-0.5 0.8-1.3 1.1-2.2 1.1-1.6 0-2.8-1.1-2.8-2.8z"/><path class="d" d="m370.9 346.6c0-1.6 1.2-2.7 2.9-2.7 0.9 0 1.7 0.3 2.1 1.1l-0.5 0.3c-0.4-0.5-1-0.8-1.6-0.8-1.2 0-2.1 0.9-2.1 2.1 0 1.4 0.9 2.2 2.1 2.2 0.6 0 1.2-0.2 1.6-0.8l0.5 0.3c-0.4 0.8-1.2 1.1-2.1 1.1-1.7 0-2.9-1.1-2.9-2.8z"/><path fill-rule="evenodd" class="d" d="m382 346.9h-4.6c0.1 1.1 1 1.9 2.2 1.9 0.7 0 1.2-0.2 1.7-0.7l0.4 0.5c-0.5 0.6-1.3 0.8-2.1 0.8-1.7 0-2.9-1.1-2.9-2.8 0-1.5 1.1-2.7 2.7-2.7 1.5 0 2.6 1.1 2.6 2.7q0 0.2 0 0.3zm-4.6-0.6h3.9c-0.1-1-0.9-1.8-1.9-1.8-1.1 0-1.9 0.8-2 1.8z"/><path class="d" d="m382.8 348.8l0.3-0.6c0.4 0.4 1.2 0.6 1.9 0.6 1.1 0 1.5-0.3 1.5-0.9 0-1.4-3.6-0.3-3.6-2.5 0-0.8 0.8-1.5 2.2-1.5 0.7 0 1.5 0.2 1.9 0.5l-0.3 0.6c-0.4-0.3-1-0.5-1.6-0.5-1 0-1.4 0.4-1.4 0.9 0 1.5 3.6 0.4 3.6 2.5 0 0.9-0.9 1.5-2.3 1.5-0.9 0-1.8-0.2-2.2-0.6z"/><path class="d" d="m387.9 348.8l0.3-0.6c0.4 0.4 1.1 0.6 1.9 0.6 1 0 1.5-0.3 1.5-0.9 0-1.4-3.6-0.3-3.6-2.5 0-0.8 0.8-1.5 2.2-1.5 0.7 0 1.5 0.2 1.9 0.5l-0.3 0.6c-0.4-0.3-1-0.5-1.6-0.5-1 0-1.4 0.4-1.4 0.9 0 1.5 3.5 0.4 3.5 2.5 0 0.9-0.8 1.5-2.3 1.5-0.8 0-1.7-0.2-2.1-0.6z"/><path class="d" d="m394.5 343.3v0.6h1.7v0.7h-1.7v4.8h-0.7v-4.8h-1v-0.7h1v-0.6c0-1 0.6-1.7 1.6-1.7 0.5 0 0.9 0.2 1.1 0.4l-0.2 0.6c-0.2-0.2-0.5-0.3-0.8-0.3q-1 0-1 1z"/><path class="d" d="m402.1 344v5.4h-0.7v-1c-0.4 0.7-1.1 1-2 1-1.3 0-2.3-0.7-2.3-2.3v-3.2h0.8v3.1c0 1.2 0.6 1.8 1.6 1.8 1.1 0 1.9-0.7 1.9-2v-2.9z"/><path class="d" d="m404.2 341.7h0.7v7.7h-0.7z"/><path class="g" d="m296.8 324.1h-3.9v-1.9h10.1v1.9h-4v10h-2.2z"/><path class="g" d="m313.3 328.9v5.2h-2.1v-4.9c0-1.6-0.8-2.4-2.2-2.4-1.5 0-2.5 0.9-2.5 2.7v4.6h-2.1v-12.6h2.1v4.6c0.7-0.7 1.8-1.1 3-1.1 2.2 0 3.8 1.2 3.8 3.9z"/><path fill-rule="evenodd" class="g" d="m323.5 328.8v5.3h-2v-1.1c-0.5 0.8-1.5 1.2-2.8 1.2-2.1 0-3.3-1.1-3.3-2.7 0-1.5 0.9-2.7 3.7-2.7h2.3v-0.1c0-1.3-0.8-2-2.2-2-1.1 0-2.1 0.3-2.8 0.9l-0.8-1.5c1-0.7 2.4-1.1 3.8-1.1 2.6 0 4.1 1.2 4.1 3.8zm-2.1 2.5v-1.1h-2.2c-1.4 0-1.8 0.6-1.8 1.2 0 0.8 0.6 1.3 1.7 1.3 1.1 0 1.9-0.5 2.3-1.4z"/><path class="g" d="m335.1 328.9v5.2h-2.1v-4.9c0-1.6-0.8-2.4-2.1-2.4-1.6 0-2.6 0.9-2.6 2.7v4.6h-2.1v-9h2v1.1c0.7-0.8 1.8-1.2 3.1-1.2 2.2 0 3.8 1.2 3.8 3.9z"/><path class="g" d="m341.5 330.2l-1.6 1.5v2.4h-2.1v-12.6h2.1v7.6l4.4-4h2.5l-3.8 3.8 4.1 5.2h-2.5z"/><path class="g" d="m361.6 325.1l-4.2 9.7c-0.8 2.1-2 2.7-3.5 2.7-0.9 0-1.8-0.4-2.4-0.8l0.9-1.6c0.4 0.4 1 0.6 1.5 0.6 0.8 0 1.2-0.4 1.6-1.2l0.1-0.4-3.9-9h2.2l2.8 6.6 2.9-6.6z"/><path fill-rule="evenodd" class="g" d="m366.7 334.2c-2.6 0-4.8-2.1-4.8-4.6 0-2.6 2.2-4.6 4.8-4.6 2.7 0 4.8 2 4.8 4.6 0 2.5-2.1 4.6-4.8 4.6zm2.7-4.6c0-1.6-1.2-2.8-2.7-2.8-1.5 0-2.6 1.2-2.6 2.8 0 1.5 1.1 2.8 2.6 2.8 1.5 0 2.7-1.3 2.7-2.8z"/><path class="g" d="m382.3 325.1v9h-2v-1.2c-0.7 0.9-1.8 1.3-2.9 1.3-2.3 0-3.9-1.3-3.9-4v-5.1h2.1v4.8c0 1.7 0.8 2.4 2.1 2.4 1.5 0 2.5-0.9 2.5-2.7v-4.5z"/><path class="g" d="m386 334.2c-0.7 0-1.3-0.6-1.3-1.3 0-0.7 0.6-1.3 1.3-1.3 0.8 0 1.4 0.6 1.4 1.3 0 0.7-0.6 1.3-1.4 1.3zm-1.2-12h2.5l-0.4 8h-1.7z"/><path class="h" d="m370.2 145.3l-3.2 45.2c-0.5 7.4-6.7 13.1-14 13.1-8.2 0-14.6-6.9-14.1-15 0.3-4.3 0.5-7.8 0.5-7.8 0 0-10.9-1.7-11.1-12.6 0-6.4 1.1-20.7 2-31.7 0.7-7.4 6.8-13.1 14.3-13.1h6.6c11.4 0.7 20 10.6 19 21.9z"/><path class="i" d="m339.4 180.8c0 0 6.9 0.4 14.3-4.2 0 0-3.6 8-14.4 7z"/><path class="d" d="m333 146.1c0.5-0.4 1.4-0.8 2.4-0.8 1 0 2 0.4 2.5 0.8 0.5 0.4 0.7 0.8 0.6 0.8-0.2 0.3-1.4-0.6-3.1-0.6-1.6 0-2.8 0.9-3 0.7-0.1-0.1 0-0.5 0.6-0.9z"/><path class="d" d="m348.9 153.2c-0.9 0-1.6-0.7-1.6-1.5 0-0.8 0.7-1.5 1.6-1.5 0.9 0 1.6 0.7 1.6 1.5 0 0.8-0.7 1.5-1.6 1.5z"/><path class="d" d="m333.9 153.2c-0.9 0-1.6-0.7-1.6-1.5 0-0.8 0.7-1.5 1.6-1.5 0.9 0 1.5 0.7 1.5 1.5 0 0.8-0.6 1.5-1.5 1.5z"/><path class="d" d="m349.2 146.3c0.5-0.3 1.4-0.7 2.4-0.7 1.1 0 2 0.4 2.5 0.7 0.6 0.4 0.7 0.8 0.7 0.9-0.2 0.2-1.4-0.7-3.1-0.6-1.7 0-2.9 0.8-3.1 0.6-0.1-0.1 0.1-0.5 0.6-0.9z"/><path class="d" d="m339.9 160.3c-0.3 0-0.5 0-0.8-0.2-0.3 0-0.5-0.2-0.7-0.6-0.2-0.6 0.1-1.2 0.3-1.6q0.5-1.6 1.2-3.3c1.7-4.7 3.3-8.4 3.5-8.3 0.2 0-1.1 3.9-2.9 8.5q-0.6 1.7-1.2 3.3c-0.3 0.5-0.4 1-0.3 1.2 0 0.4 0.5 0.4 0.9 0.5 1.7 0.2 2.8 0.3 2.7 0.5 0 0.1-1 0.1-2.7 0z"/><path class="d" d="m347.8 162.7c0 0.7-0.5 1.8-1.4 2.5-1 0.8-2.1 1.1-2.9 1.1-0.8 0-1.3-0.3-1.3-0.4 0-0.3 2-0.1 3.5-1.4 1.6-1.2 1.6-3.1 1.9-3 0.1-0.1 0.3 0.4 0.2 1.2z"/><path class="d" d="m349.7 140.2c0.8-0.3 1.8-0.4 3-0.3 1.2 0.1 2.2 0.5 2.8 1 0.7 0.4 1 0.8 0.9 1.1-0.3 0.3-1.9-0.2-3.9-0.4-1.9-0.2-3.6 0-3.8-0.5-0.1-0.2 0.3-0.6 1-0.9z"/><path class="d" d="m332.7 140.9c0.4-0.4 1.3-0.7 2.2-0.7 1-0.1 1.8 0.2 2.3 0.6 0.5 0.3 0.7 0.7 0.6 0.9-0.3 0.4-1.4 0.1-2.8 0.2-1.4 0-2.6 0.4-2.9 0-0.1-0.2 0.1-0.6 0.6-1z"/><path class="h" d="m366.5 153.5c0.2 0 7.5-2.1 7.3 5.3-0.2 7.5-7.7 5.7-7.7 5.5 0-0.2 0.4-10.8 0.4-10.8z"/><path class="i" d="m368.5 161.5c0 0 0.1 0.1 0.3 0.2 0.2 0.1 0.5 0.2 1 0.1 0.8-0.3 1.5-1.5 1.6-2.9q0-1-0.4-1.8c-0.2-0.6-0.5-1-0.9-1-0.4-0.2-0.7 0.1-0.8 0.3q-0.1 0.3-0.1 0.3c0 0.1-0.1-0.1-0.1-0.4 0.1-0.1 0.1-0.3 0.4-0.5 0.1-0.1 0.4-0.2 0.7-0.1 0.5 0 1.1 0.6 1.3 1.2 0.3 0.6 0.4 1.3 0.4 2-0.1 1.6-0.9 2.9-2 3.2-0.6 0.2-1 0-1.2-0.2-0.2-0.2-0.3-0.3-0.2-0.4z"/><path class="d" d="m370.7 153.3c-1.2-0.3-3.2 0.8-3.6 1.8-0.5 1.1-0.6 2.3-1.1 3.4-0.5 1-1.6 2-2.7 1.8-0.8-0.2-1.4-1-1.6-1.7-0.2-0.9-0.1-1.7 0-2.4 0.4-3.5 1.2-7 1.3-10.5 0.1-3.5-0.4-7.2-2.2-10.2-1.8-3-5.3-5.2-8.8-4.9-2.3 0.2-4.4 1.4-6.7 1.7-2.8 0.4-5.7-0.5-7.6-2.5-0.2-0.3-1.4-1-1.4-1 0-0.2 0.2-1.8 0.8-2.3 4.6-4.3 12.8-5.4 18.9-3.9 6 1.5 11.7 5.8 14.3 11.4 2.5 5.7 1.8 13.6 0.4 19.3z"/><path class="d" d="m328.1 134.9c2.2-3.4 6.5-5.2 10.7-5.1 4.1 0.2 12 1.8 15.3 4.4 0.3 0.2 0.8 0.8 0.5 1.2-0.2 0.3-0.6 0.3-1 0.3-2.5-0.1-8.9 1-11.2 1.6-2.4 0.7-4.9 1.3-7.3 1.1-2.5-0.3-5-1.6-6-3.9"/><path class="g" d="m358.2 121.3c13.6 4.1 14.9 17.4 14.9 19.6 0 3.3-1.7 8.7-1.7 8.7-8.1-16.3-23.6-19.3-33.1-18.4-4.9 0.4-8.1 3.7-8.1 3.7 7.5-21.5 28-13.6 28-13.6z"/><path  d="m358.2 121.3c13.6 4.1 14.9 17.4 14.9 19.6 0 3.3-1.7 8.7-1.7 8.7-7.6-15.4-23.6-19.3-32.1-18.9-5.8 0.2-9.1 4.2-9.1 4.2 7.5-21.5 28-13.6 28-13.6z"/><path class="g" d="m338.6 131.6c-8.5 1.1-8.4 6.4-8.4 6.4 0 0-4.8-2.5-7.2-4.3-2.4-1.7-7.4-6-6.7-8.9 0.6-2.3 2.9-3.8 5.2-4.2 2.3-0.4 4.6 0.1 6.8 0.7 7.6 2 18.5 6.1 25.1 10.2 6.6 4.1 12.7 8.9 16.8 15.7 0.3 0.3-20.2-17-31.6-15.6z"/><path class="e" d="m354.9 126.7c-0.1 0.2-3.2-1.9-7.7-3-4.4-1.1-8.2-0.6-8.2-0.8 0-0.1 1-0.3 2.5-0.4 1.5 0 3.6 0.1 5.9 0.6 2.2 0.6 4.2 1.4 5.5 2.2 1.3 0.8 2 1.4 2 1.4z"/><path class="d" d="m348.9 305.2c-34.5 0-62.4-0.2-62.4-0.3 0-0.2 27.9-0.3 62.4-0.3 34.5 0 62.4 0.1 62.4 0.3 0 0.1-27.9 0.3-62.4 0.3z"/><path class="h" d="m307.1 232.8c0 0-23.7 11.2-27.8 11.8-4.2 0.4-7.7-2.5-13-8.1-5.2-5.6-19.4-22-19.4-22l7.6-12 24.9 20.3 16.1-7.3c6 0.7 11.6 17.3 11.6 17.3z"/><path class="h" d="m227.1 192.2c0 0 3.2 2.3 5.2 2.2 2.1-0.1 9.8-0.2 10.4-0.1 0.6 0 8.2 4.1 8.2 4.1l5.5 5.4-8.7 12c0 0-1.4-1.6-2.4-1.5-1 0.2-12.9-0.9-14.7-1.5-1.8-0.6-4.1-1-4.7-2-0.6-1.2-0.8-2 0.8-3.4 0 0-2.1-1.7-0.6-3.8 0 0-2.4-1.9-1.5-3.5 0 0-1.5-0.6-1.7-1.5-0.2-0.9 0.1-2.8 0.1-2.8l3.6-1.1c0 0-1.1-1.3 0.5-2.5z"/><path class="i" d="m225.8 194.9q0 0 0.4-0.1c0.3-0.1 0.7-0.3 1.4-0.3 0.6 0 1.2 0.3 1.9 0.8 0.6 0.4 1.1 1.5 0.7 2.4-0.1 0.5-0.5 0.9-0.9 1-0.5 0.3-0.9 0.3-1.2 0.4q-1 0.2-2 0.4c-1.1 0.2-1.7 0.3-1.8 0.2 0-0.1 0.7-0.3 1.8-0.6q0.9-0.2 1.8-0.5c0.8-0.2 1.6-0.3 1.8-1.1 0.2-0.7-0.1-1.4-0.6-1.9-0.4-0.4-1.1-0.6-1.6-0.7-0.5 0-0.9 0.1-1.2 0.1-0.4 0-0.5 0-0.5-0.1z"/><path class="i" d="m230.2 198.1q0-0.1 0.9-0.3c0.5-0.1 1.3-0.2 2.3-0.2 1-0.1 2.3 0.1 3.4 0.9 0.6 0.4 1.2 1 1.4 1.8 0.1 0.7-0.1 1.7-0.9 2.2-0.8 0.4-1.6 0.3-2.3 0.4q-1.1 0.1-2 0.2-1.9 0.1-3.5 0.2c-2 0.1-3.2 0.2-3.2 0.1 0-0.1 1.2-0.2 3.2-0.5q1.5-0.1 3.4-0.3 1-0.1 2.1-0.3c0.6 0 1.4 0 2-0.3 0.6-0.3 0.7-1 0.6-1.6-0.1-0.7-0.5-1.2-1-1.5-1.1-0.7-2.2-0.9-3.2-0.9-2-0.1-3.2 0.2-3.2 0.1z"/><path class="i" d="m237.6 202.5c0-0.1 0.2 0 0.4 0.3 0.3 0.3 0.5 0.9 0.3 1.5-0.3 0.7-0.9 1.3-1.7 1.6-0.8 0.3-1.8 0.3-2.7 0.4-3.8 0.1-6.8 0.9-6.8 0.7-0.1-0.1 2.9-1.1 6.7-1.3 1 0 1.9 0 2.6-0.3 0.7-0.2 1.3-0.7 1.5-1.2 0.2-0.5 0.1-1 0-1.3-0.2-0.3-0.3-0.4-0.3-0.4z"/><path class="i" d="m250 204.5c0 0.1-0.5 0.4-1.6 0.7-1 0.2-2.5 0.4-4.1 0.2-1.6-0.3-2.9-0.8-3.9-1.3-0.9-0.5-1.4-0.9-1.3-1 0.1-0.2 2.2 1.3 5.3 1.7 3.1 0.4 5.5-0.4 5.6-0.3z"/><path class="i" d="m237.6 199c0-0.1 0.8 0.1 1.8 0 0.9-0.1 1.6-0.5 1.7-0.4 0.1 0.1-0.5 0.9-1.7 1-1.1 0.1-2-0.5-1.8-0.6z"/><path class="i" d="m236.7 210.9c-0.2 0 0.2-1.7 1.6-3 1.5-1.3 3.1-1.6 3.1-1.5 0.1 0.2-1.3 0.6-2.6 1.9-1.4 1.3-2 2.7-2.1 2.6z"/><path class="g" d="m210.8 242.3h47.4l8.8 69.4h-65.5z"/><path class="g" d="m258.2 242.3h5.5l16.2 69.4h-12.9z"/><path class="j" d="m258.2 242.3h5.5l16.2 69.4h-12.9z"/><path class="i" d="m231.7 206.2c0 0 0.2 0 0.4 0 0.3 0.1 0.6 0.3 0.8 0.7 0.3 0.4 0.4 1 0.2 1.6-0.2 0.5-0.7 1.1-1.3 1.3-0.9 0.5-1.7 0.5-2.4 0.5l0.2-0.1c-0.6 1.2-1.4 1.7-1.4 1.6-0.1-0.1 0.5-0.7 0.9-1.8l0.1-0.2h0.2c0.6 0 1.4-0.1 2.1-0.5 0.5-0.2 0.9-0.6 1.1-1.1 0.2-0.4 0.1-0.8 0-1.2-0.3-0.6-0.9-0.7-0.9-0.8z"/><path class="g" d="m222.8 245.3c0 0 0-0.5 0.1-1.3 0.1-1 0.3-2.3 0.6-3.9 0.5-3.2 1.4-7.6 2.4-12.4 1-4.8 1.9-9.2 2.6-12.4q0.4-2.2 0.7-3.7 0.2-1.4 0.3-1.4c0 0 0 0.5-0.1 1.4-0.1 0.9-0.3 2.2-0.5 3.8-0.6 3.2-1.4 7.6-2.4 12.4-1.1 4.9-2 9.2-2.6 12.4q-0.4 2.3-0.8 3.8c-0.1 0.9-0.2 1.4-0.3 1.3z"/><path class="g" d="m247.9 246c-0.1 0-0.2-0.5-0.6-1.6-0.2-1.1-0.7-2.6-1.2-4.4-1-3.7-2.3-8.8-3.8-14.6-1.5-5.6-2.8-10.8-3.7-14.6-0.4-1.8-0.8-3.3-1-4.4-0.3-1-0.4-1.6-0.4-1.6 0.1 0 0.2 0.5 0.6 1.5q0.4 1.8 1.2 4.5c1 3.7 2.4 8.8 3.8 14.5 1.5 5.7 2.8 10.9 3.7 14.6 0.4 1.8 0.8 3.3 1 4.5 0.3 1 0.4 1.6 0.4 1.6z"/><path class="d" d="m279.9 311.7c-0.1 0.1-1-0.6-2.3-1.6-1.3-1.1-3.2-2.5-5.3-4.2q-0.5-0.4-1-0.8l0.4-0.1c-1.2 2-2.4 3.6-3.2 4.8-0.9 1.2-1.4 1.9-1.5 1.9 0 0 0.4-0.8 1.1-2.1 0.8-1.2 1.9-3 3.1-4.9l0.2-0.3 0.3 0.3q0.5 0.3 1 0.8c2 1.6 3.8 3.1 5.1 4.3 1.4 1.1 2.1 1.8 2.1 1.9z"/><path class="d" d="m261.1 242.3c0.1 0 2.6 14 5.5 31.2 2.8 17.3 5.1 31.3 4.9 31.4-0.2 0-2.6-14-5.5-31.2-2.8-17.4-5.1-31.4-4.9-31.4z"/><path class="e" d="m261 262c0 0-0.4 0.4-1.1 1.1-0.8 0.6-2 1.5-3.6 2.4-1.7 0.9-3.9 1.8-6.6 2.3-2.6 0.4-5.8 0.5-9.1-0.6-1.6-0.5-3.3-1.4-4.6-2.8-1.3-1.3-2.3-3.1-2.5-5.2-0.2-2.1 0.7-4.3 2.4-5.7 0.8-0.8 1.9-1.2 3-1.3 1.2-0.1 2.4 0.2 3.4 0.7 1 0.6 1.9 1.3 2.7 2.2 0.7 1 1.2 2.1 1.5 3.3 0.6 2.3 0.4 4.8 0 7.2-1 4.8-3.6 9.5-7.5 13.1-1.9 1.7-4.1 3.1-6.5 4.1-2.3 1-4.9 1.5-7.4 1.3-2.5-0.2-4.9-1.1-6.7-2.6-1.9-1.5-3.3-3.6-3.6-5.9-0.5-2.3 0-4.7 1.2-6.5 1.2-1.8 3.3-3.1 5.4-2.9 1.1 0.1 2.1 0.6 2.7 1.4 0.7 0.8 1.1 1.7 1.2 2.7 0.4 1.9 0 3.7-0.6 5.3-1.3 3.2-3.7 5.4-6.1 6.8-2.3 1.4-4.6 2-6.5 2.3-1.8 0.4-3.3 0.5-4.4 0.6q-0.7 0-1 0-0.4 0-0.4 0 0 0 0.4 0 0.3-0.1 1-0.1c1-0.1 2.5-0.3 4.4-0.7 1.8-0.4 4-1 6.3-2.4 2.3-1.3 4.7-3.5 5.9-6.6 0.6-1.6 1-3.4 0.6-5.1-0.2-0.9-0.6-1.8-1.2-2.5-0.5-0.7-1.4-1.2-2.3-1.2-1.9-0.2-3.8 1-4.9 2.7-1.2 1.7-1.6 3.9-1.2 6.1 0.3 2.1 1.6 4.2 3.4 5.5 1.8 1.4 4.1 2.3 6.5 2.5 4.8 0.4 9.7-1.9 13.4-5.3 3.8-3.4 6.3-8 7.3-12.7 0.5-2.4 0.7-4.8 0.1-7-0.3-1.1-0.8-2.2-1.5-3-0.6-0.9-1.5-1.6-2.5-2.2-0.9-0.4-2-0.7-3-0.6-1.1 0.1-2 0.5-2.8 1.2-1.6 1.3-2.4 3.3-2.3 5.2 0.2 2 1.1 3.7 2.4 5.1 1.3 1.3 2.8 2.1 4.4 2.6 3.2 1.1 6.4 1.1 9 0.6 2.6-0.4 4.8-1.2 6.5-2.1 1.7-0.8 2.8-1.7 3.6-2.3 0.4-0.3 0.7-0.6 0.9-0.8q0.3-0.2 0.3-0.2z"/><path class="f" d="m323.4 224.4l-16.2 9.5-12.6-19.8c0 0 22.2-18.8 25-19.8h8.5z"/><path class="f" d="m319.6 194.3l18.8-7.2c0 0 2.8 5.8 11.2 4.5 8.4-1.2 18.3-7.1 18.3-7.1 0 0 14.6 8.2 18.8 11.7 4.3 3.5-3.4 75.7-3.4 75.7l-2 21.6c0 0 1.5 1.2 1.5 4.9 0 3.7 0.2 6.2 0.2 6.2h-74.9c0 0-1.8-8.7-0.4-12.2 1.4-3.4 3.7-6.8 3.7-6.8l1.1-33.4 0.5-29.8z"/><path class="f" d="m386.7 196.2c0 0 6.1 1.7 7.8 10.7 1.8 8.9 1.5 43.1 1.5 43.1l-33.7-7.3c0 0 4.5-14.4 4.5-15.3 0-1 9.3-24.1 9.6-24.6 0.4-0.5 10.3-6.6 10.3-6.6z"/><path class="d" d="m312.6 235.1c-0.2 0-0.4-6-0.4-13.4 0-7.4 0.2-13.3 0.4-13.3 0.1 0 0.3 5.9 0.3 13.3 0 7.4-0.2 13.4-0.3 13.4z"/><path class="d" d="m371.1 211.5c0 0-0.1 0.5-0.2 1.2-0.1 0.8-0.2 1.9-0.5 3.2-0.6 2.7-1.4 6.4-2.5 10.5-1 4-2.1 7.6-3 10.2-0.4 1.3-0.8 2.4-1.1 3.1-0.2 0.7-0.4 1.1-0.4 1.1-0.1 0 0.1-0.5 0.3-1.2q0.3-1.3 0.8-3.1c0.8-2.6 1.8-6.3 2.9-10.3 1.1-4 1.9-7.7 2.6-10.4q0.4-1.8 0.7-3.1c0.2-0.7 0.3-1.2 0.4-1.2z"/><path class="d" d="m367.9 210.8c0.1 0 0.1 3.1-0.1 6.9-0.2 3.8-0.5 6.9-0.6 6.9-0.2-0.1-0.1-3.1 0.1-6.9 0.1-3.8 0.5-6.9 0.6-6.9z"/><path class="e" d="m352.3 222.4c-4.1 0-7.3-0.1-7.3-0.3 0-0.1 3.2-0.3 7.3-0.3 4 0 7.2 0.2 7.2 0.3 0 0.2-3.2 0.3-7.2 0.3z"/><path class="h" d="m320.9 271.2l37.3-4.5 5.9-23.6 20.8 4.5c0 0-8.2 32.8-16.8 36-8.5 3.2-50.6-2.2-50.6-2.2z"/><path class="h" d="m324.5 271.1c0 0 0.6 0.9 0 5.1-0.6 4.2-2 5.8-2 5.8 0 0-7-0.9-6.9-0.8 0.2 0-3.5-0.6-5.4-0.4-1.8 0.2-6.3 2.6-6.3 2.6l-11.8-1.2c0 0-8.6-3-9-4.1-0.4-1.1 2-1.9 2-1.9 0.8-1 5.5 0.4 5.5 0.4 0.7-1.7 8.2-1 8.2-1l10.1-5.8c0.4-0.8 2.5-1.2 4.2-1 1.8 0.3 6.2 2.1 6.2 2.1z"/><path class="i" d="m314.4 276.3c0 0-0.4 0.1-0.8-0.2-0.4-0.4-0.8-1.1-1.4-1.5-0.3-0.2-0.8-0.3-1.3-0.4-0.5-0.1-1.1-0.2-1.6-0.7-0.5-0.4-0.8-1.1-0.9-1.8-0.1-0.7 0.1-1.4 0.7-2 1-1.1 2.5-1.3 3.7-1 1.2 0.2 2.1 0.9 2.8 1.4q1 0.9 1.5 1.5 0.5 0.6 0.4 0.6c0 0.1-0.8-0.7-2.1-1.8-0.7-0.5-1.6-1-2.7-1.2-1.1-0.2-2.4 0-3.2 0.9-0.9 0.8-0.6 2.3 0.2 3 0.7 0.8 1.9 0.6 2.7 1.2 0.8 0.6 1 1.3 1.4 1.6 0.3 0.3 0.6 0.4 0.6 0.4z"/><path class="i" d="m308.1 274.4c0 0.1-0.6 0-1.3 0.4-0.8 0.3-1.8 1.1-3.2 1.5-1.6 0.3-2.8-0.1-3.6-0.2-0.9-0.2-1.5-0.2-1.5-0.3 0 0 0.6-0.2 1.5-0.2 0.9 0.1 2.1 0.5 3.4 0.2 1.3-0.3 2.3-1.2 3.2-1.4 0.9-0.3 1.5-0.1 1.5 0z"/><path class="i" d="m308.4 279.1q0 0.1-0.7 0.4-0.7 0.4-2.1 0.8c-1.8 0.5-4.4 0.7-7.2 0.4-1.4-0.2-2.8-0.4-4-0.6-1.2-0.2-2.3-0.2-3.2-0.7-0.4-0.2-0.8-0.5-1-0.9-0.1-0.4-0.1-0.7-0.1-1 0.1-0.6 0.5-0.7 0.5-0.7 0 0.1-0.3 0.2-0.3 0.7 0 0.5 0.3 1.2 1.1 1.6 0.7 0.3 1.9 0.3 3.1 0.5q1.9 0.3 3.9 0.5c2.8 0.3 5.4 0.2 7.1-0.2 1.8-0.4 2.8-1 2.9-0.8z"/><path class="i" d="m364.4 276.3c-0.2 0-0.8-2.3-2.5-4.7-1.6-2.4-3.5-3.8-3.4-4 0.1-0.1 2.2 1.2 3.9 3.7 1.7 2.5 2.1 5 2 5z"/><path class="h" d="m104.9 393.8l9.6 12-12.2 74.2-17.6-1.9 1.4-72.9z"/><path class="g" d="m104.5 476.4v1.2c0 0 20.1 8.3 20.3 12.1l-40.1-0.6v-13.4c5.9 2.9 12.9 3.3 19.8 0.7z"/><path class="d" d="m84.7 489.1l0.1-3.2 38.4 1.8c0 0 1.8 0.8 1.6 2z"/><path class="d" d="m76.6 192.2c-1.4 3.1-3 6.1-3.9 9.4-1.5 6-0.2 12.3-1.2 18.4-0.4 2.2-1 4.3-2.4 5.9-1.5 1.6-3.9 2.4-5.9 1.7-1.8-0.8-2.9-2.9-3.3-4.9-0.4-2-0.2-4-0.4-6-0.2-2.7-1.1-5.3-1.1-7.9 0-2.6 0.9-5.6 3.3-6.7-3.1-4.6-1.4-11.7 3.4-14.4-1.4-4.1 0.6-9 4.5-10.8l3.7-2.2c3.2 1.1 5.2 4.4 5.5 7.8 0.3 3.4-0.8 6.7-2.2 9.7z"/><path class="d" d="m77 182c-4.2 0-8.2-2.4-10.2-6.1-2-3.7-1.9-8.4 0.4-11.9 0.3-0.6 0.8-1.1 1.3-1.3 1.3-0.5 2.6 0.4 3.5 1.4q3.5 3.4 6.9 6.7"/><path class="d" d="m77.3 173.4c-5.2-2.4-9.3-8.2-10.9-13.8-1.5-5.5 0.3-16.7 1.8-22.3 1.8-6.7 4.6 2 6.9 2.7 1.3 0.4 2.3 1.7 2.7 3.1 0.4 1.3 0.4 2.8 0.3 4.2q-0.4 13.1-0.8 26.1z"/><path class="d" d="m90.5 118.4c8.6-4.7 15.6-1.9 19 0.7 3.4 2.7 5.4 6.8 6.7 10.9 1.2 4 1.8 8.4 2.8 12.5 0.8 3.6 0.8 3.8 1.3 7.3 0.5 3.6 0.4 10-1.5 13.1-1.7 3-3.7 5.7-6.5 7.6-1.1 0.7-2.3 1.4-3.5 1-0.9-0.3-1.5-1-2-1.8-9.4-13.4-16.8-28.3-21.9-43.8"/><path class="h" d="m80.9 128.4l15-6 3.9 0.4c8.8 0 15 9.7 15.1 16.9 0.1 8-0.1 17.7-1.3 23.6-2.5 11.8-11.7 12.8-11.7 12.8 0 0 0.1 3.3 0.2 7.2 0.2 7.1-5.7 13-12.8 12.8-6.7-0.1-12.2-5.7-12.2-12.4l-0.2-51.2c0-2.2 1.8-3.9 4-4.1z"/><path class="d" d="m109.5 149.1c-0.8 0-1.5-0.7-1.5-1.5 0-0.8 0.7-1.5 1.5-1.5 0.9 0 1.6 0.7 1.6 1.5 0 0.8-0.7 1.5-1.6 1.5z"/><path class="d" d="m111.8 143.8c-0.3 0.2-1.3-0.7-3-0.8-1.6-0.1-2.9 0.7-3 0.4-0.2-0.1 0.1-0.4 0.6-0.7 0.6-0.4 1.4-0.7 2.5-0.7 1 0.1 1.8 0.5 2.3 0.9 0.5 0.4 0.7 0.8 0.6 0.9z"/><path class="d" d="m101.7 156.7c0-0.2 1.1-0.3 2.7-0.4 0.4 0 0.8-0.1 0.9-0.4 0.1-0.3 0-0.7-0.2-1.2q-0.5-1.6-1.1-3.3c-1.5-4.6-2.6-8.5-2.3-8.5 0.1-0.1 1.5 3.7 3 8.3q0.5 1.7 1 3.3c0.2 0.5 0.4 1 0.2 1.6-0.1 0.3-0.5 0.6-0.7 0.6-0.3 0.1-0.6 0.1-0.8 0.1-1.6 0-2.7 0-2.7-0.1z"/><path class="i" d="m101.9 179c-11.9 0.6-15.7-7.9-15.7-7.9 7.7 5.2 15.7 5 15.7 5z"/><path class="i" d="m100.9 161.1q-0.3 0.3-0.5 0.6c-0.7 0.5-1.4 1-2.2 1.1-0.8 0.2-1.8-0.1-2.2-0.9-0.5-0.6-0.3-1.5 0.1-2.2 0.4-0.6 1.2-0.9 1.9-0.9 1.1 0 2 0.4 2.7 1.4 0.1 0.2 0.3 0.7 0.2 0.9z"/><path class="d" d="m96.8 157.5c0.3 0 0.2 1.8 1.7 3.1 1.4 1.4 3.3 1.3 3.3 1.6 0.1 0.1-0.4 0.3-1.2 0.2-0.8 0-1.9-0.3-2.8-1.1-0.9-0.8-1.3-1.9-1.3-2.6 0-0.7 0.2-1.2 0.3-1.2z"/><path class="d" d="m111.5 139.2c-0.3 0.4-1.4-0.1-2.7-0.2-1.4-0.1-2.6 0.1-2.8-0.3-0.1-0.2 0.1-0.5 0.6-0.8 0.5-0.4 1.3-0.6 2.3-0.6 0.9 0.1 1.7 0.5 2.2 0.9 0.4 0.4 0.6 0.8 0.4 1z"/><path class="d" d="m94.4 149.1c-0.8 0-1.5-0.7-1.5-1.5 0-0.8 0.7-1.4 1.5-1.4 0.9 0 1.5 0.6 1.5 1.4 0 0.8-0.6 1.5-1.5 1.5z"/><path class="d" d="m90.4 142.7c0.5-0.3 1.4-0.7 2.4-0.7 1.1 0 1.9 0.4 2.4 0.8 0.6 0.4 0.7 0.7 0.6 0.9-0.1 0.1-1.3-0.8-3-0.8-1.6 0-2.8 0.9-3 0.7-0.1-0.1 0.1-0.5 0.6-0.9z"/><path class="d" d="m91.1 137.4c0.5-0.3 1.3-0.7 2.2-0.7 0.9 0 1.8 0.3 2.2 0.6 0.5 0.4 0.8 0.8 0.6 1-0.3 0.3-1.4 0-2.8 0.1-1.4 0-2.5 0.3-2.8 0-0.1-0.2 0.1-0.6 0.6-1z"/><path class="d" d="m94.9 121.8c-5.9 8-12.2 17.2-18.4 25.1-1-3.9-2.1-9.9-1.3-13.9 0.7-4 2.8-8 6-10.4 3.3-2.5 9.1-3 12.9-1.5z"/><path class="d" d="m97 117.5c20.9-2.9 19 28.6 19 28.6-2.1-11.6-18.3-23.7-18.3-23.7l-3.3-0.6z"/><path class="h" d="m77.4 161.5c-0.1 0.2-8.3 1.5-7.8-6.7 0.3-5.9 4.5-5.8 6.8-5.4 0.9 0.2 1.8 2.3 1.8 3.2-0.2 3.1-0.8 8.7-0.8 8.9z"/><path class="i" d="m75.8 158.7c-0.2 0.2-0.7 0.3-1.3 0.1-1.1-0.4-1.9-1.9-1.8-3.6 0-0.8 0.2-1.6 0.6-2.2 0.3-0.7 0.9-1.2 1.6-1.2 0.2 0 0.5 0.1 0.7 0.3q0.3 0.2 0.3 0.5c0 0.3-0.1 0.4-0.1 0.4-0.1 0 0-0.1-0.1-0.4-0.1-0.2-0.4-0.5-0.8-0.4-0.5 0-0.9 0.5-1.1 1-0.4 0.6-0.5 1.3-0.6 2 0 1.5 0.6 2.9 1.5 3.3 0.4 0.1 0.8 0.1 1 0 0.3-0.1 0.4-0.2 0.4-0.2 0.1 0 0 0.2-0.3 0.4z"/><path class="d" d="m68.6 133.2c2.1-5.5 6.3-10.2 11.2-13.5 2.6-1.8 5.5-3.3 8.7-3.7 3.2-0.4 6.6 0.5 8.7 2.9l0.6 0.6c-3.6 7.9-6.1 14.7-10.7 22.1-1.8 2.7-2.5 12-2.9 15.2-1.4 10.8-7.3 15.5-7.3 15.5-12.9 0-10.3-33.5-8.3-39.1z"/><path class="f" d="m74.9 171c0 0.1-0.6 0-1.6-0.5-0.9-0.4-2.2-1.2-3.2-2.4-1.1-1.2-1.8-2.5-2.1-3.5-0.4-1-0.5-1.6-0.4-1.6 0.2-0.1 0.8 2.4 2.9 4.7 2.1 2.3 4.5 3.1 4.4 3.3z"/><path class="f" d="m73.4 181.6c0 0.1-1.8 0-3.4-1.3-1.6-1.2-2.2-2.8-2.1-2.8 0.1-0.1 0.9 1.3 2.5 2.4 1.4 1.2 3 1.5 3 1.7z"/><path class="f" d="m68 191.5c-0.2 0.1-0.9-0.7-1.7-1.8-0.8-1.1-1.3-2-1.2-2.1 0.1-0.2 0.9 0.7 1.7 1.8 0.7 1.1 1.3 2.1 1.2 2.1z"/><path class="f" d="m63.8 203.8c-0.1 0.1-0.7-0.3-1.3-1-0.6-0.7-1-1.3-0.9-1.4 0.1-0.1 0.8 0.3 1.3 1.1 0.6 0.6 1 1.2 0.9 1.3z"/><path class="f" d="m66.2 151.6c0 0 0.6-0.4 1.6-0.9q0.7-0.4 1.8-1c0.7-0.5 1.5-0.9 2.3-1.5 1.8-1.1 3.7-2.6 5.7-4.3 2.1-1.8 4.2-3.8 6.2-6.2 2-2.3 3.7-4.8 5.1-7.1 1.5-2.3 2.6-4.5 3.4-6.3 0.5-1 0.7-1.8 1.1-2.5q0.4-1.2 0.7-2c0.4-1.1 0.6-1.7 0.6-1.6 0.1 0-0.1 0.6-0.4 1.7-0.2 0.6-0.3 1.2-0.7 2-0.2 0.7-0.5 1.6-0.9 2.5-0.8 2-1.9 4.1-3.3 6.5-1.4 2.3-3.1 4.8-5.2 7.2-2 2.4-4.2 4.5-6.2 6.2-2.1 1.8-4.1 3.2-5.9 4.2-0.8 0.6-1.6 1.1-2.3 1.4-0.7 0.4-1.4 0.7-1.9 1-1.1 0.5-1.6 0.7-1.7 0.7z"/><path class="f" d="m86.3 141.9c0.1 0-0.1 0.3-0.6 0.7-0.4 0.5-1 1.2-1.8 1.9-1.6 1.6-4.1 3.5-7 5.3-3 1.7-5.9 2.9-8 3.6-1.1 0.3-2 0.6-2.6 0.7q-0.9 0.1-0.9 0.1c0-0.1 1.3-0.4 3.4-1.2 2.1-0.8 4.9-2 7.8-3.7 2.9-1.7 5.4-3.6 7-5 1.7-1.5 2.7-2.5 2.7-2.4z"/><path class="f" d="m116.6 152.2c0 0 0.1-0.6 0.3-1.8 0.3-1.1 0.5-2.8 0.6-4.8 0.2-4.1-0.7-10-3.9-15.5-3.2-5.4-7.9-9-11.6-10.9-1.8-0.9-3.4-1.5-4.5-1.9-1.1-0.3-1.7-0.5-1.7-0.6q0 0 0.5 0.1c0.2 0.1 0.7 0.2 1.3 0.3 1.1 0.3 2.7 0.8 4.6 1.8 3.8 1.8 8.6 5.4 11.9 10.9 3.3 5.6 4 11.6 3.8 15.8q-0.2 3.2-0.7 4.9c-0.1 0.6-0.3 1-0.4 1.3q-0.1 0.4-0.2 0.4z"/><path class="i" d="m217.4 226.4c-0.8 1.4-1.6 2.7-2.7 3.8-0.7-0.4-1.3-0.9-1.7-1.6-0.3-0.8-0.2-2 0.4-2.6"/><path class="i" d="m212.4 226c-1 1.2-2.2 2.2-3.6 3-0.5-0.6-1-1.2-1.1-2-0.2-0.7 0.3-1.9 1-2.3"/><path class="h" d="m101 188.6c0 0 35.9 28.3 42.4 29.3 6.4 0.9 36.7-2.8 49.2-3.2l1.7 10.4c0 0-34.3 11.7-46.8 12.1-12.5 0.5-19.6-2.9-19.6-2.9l-23.3-23.9z"/><path class="h" d="m191.7 214.8c0 0 16.1-2.3 18.6-1 2.5 1.2 9.7 7.3 9.7 7.3 0 0 2.3 6.7 0.8 7-1.5 0.3-3-2.2-3-2.2l-2-3.7-9-2.2-14.9 1.3z"/><path class="h" d="m189 226.2l1-5.6 17.7-1.9c0 0 1.4 1.3 4.5 2 3 0.9 7.2 1.7 8 2.5 0.9 0.8 0.8 1.9 0.1 2.7-0.7 1-5.8 0.5-8.4 0.2-2.5-0.3-5.8 1.9-8.7 2-2.9 0.1-8.7-2.7-8.9-3z"/><path class="i" d="m202 218.5c0 0 0.3 0 0.9 0 0.6 0 1.5 0 2.5 0.3 2.1 0.4 4.9 1.5 7.9 2.4q2.2 0.8 4.3 1.1c0.7 0.1 1.4 0.3 2 0.7 0.5 0.5 0.7 1.2 0.6 1.8 0 0.6-0.3 1.1-0.7 1.4-0.3 0.2-0.7 0.3-1.1 0.3-0.6 0.1-0.9-0.2-0.9-0.2 0.1 0 0.3 0.1 0.9 0 0.5-0.1 1.4-0.5 1.5-1.6 0-0.4-0.2-0.9-0.6-1.3-0.4-0.4-1.1-0.5-1.7-0.6-1.5-0.1-3-0.5-4.5-1-3.1-1.1-5.7-2.2-7.8-2.6-2-0.6-3.3-0.6-3.3-0.7z"/><path class="i" d="m213.5 221.8c0 0.2-1.3-0.2-2.6-1.3-1.2-1-2-2.1-1.8-2.2 0.1-0.1 0.9 0.9 2.2 1.8 1.2 1 2.3 1.6 2.2 1.7z"/><path class="h" d="m137 400.6c-6.2 13-27.9 16.5-41.2 19.2-13.5 2.7-54.4 14.9-54.4 14.9l-3.9-17.4 32.5-14.5z"/><path class="g" d="m44.5 435l-1.1 0.3c0 0-2.6 21.4-6.2 22.5l-10-38.3 12.7-3.6c-1.2 6.4 0.3 13.2 4.6 19.1z"/><path class="d" d="m27.2 419.5l3.1-0.7 8.4 37c0 0-0.3 1.9-1.5 2z"/><path class="i" d="m136.8 401.1c0 0-0.1 0.4-0.4 1-0.2 0.5-0.7 1.3-1.5 2.3-1.6 1.8-4.4 4.1-8 6.3-1.9 1.2-4.1 2.2-6.5 3.1-2.4 0.9-5.1 1.5-7.8 2.2-5.6 1.4-11.6 3-18 4.7-12.8 3.3-24.4 6.4-32.8 8.6-4.1 1-7.5 1.9-9.9 2.5q-1.7 0.5-2.8 0.7-0.9 0.2-0.9 0.2 0-0.1 0.9-0.3 1-0.3 2.7-0.7c2.4-0.7 5.7-1.6 9.9-2.8 8.3-2.3 19.9-5.4 32.7-8.8 6.4-1.7 12.5-3.2 18.1-4.6 2.8-0.7 5.4-1.3 7.8-2.1 2.3-0.9 4.5-1.9 6.4-3 3.6-2.2 6.4-4.4 8-6.2 1.7-1.8 2-3.1 2.1-3.1z"/><path class="d" d="m131.2 257.5v6.7l34.1 124.5-21.9 5.9c0 0 0 0-6.4 6-6.5 6-67.7 2.5-67.7 2.5 0 0 5.3-91 5.3-102.4 0-11.4 11.2-32.8 11.2-32.8l-0.7-6.4z"/><path class="f" d="m126.9 292.4q0 0 0.1 0.3 0 0.2 0.1 0.7 0.2 1.1 0.4 2.9c0.4 2.5 0.9 6.1 1.5 10.5 1.3 8.9 3.2 21.2 5.6 34.8 2.5 13.5 5 25.7 7 34.5 1 4.3 1.7 7.9 2.3 10.4q0.4 1.8 0.6 2.8 0.1 0.5 0.1 0.8 0.1 0.2 0.1 0.2 0 0-0.1-0.2-0.1-0.3-0.2-0.8-0.3-1-0.8-2.7c-0.6-2.5-1.4-6-2.4-10.4-2.1-8.8-4.7-21-7.2-34.5-2.4-13.6-4.2-25.9-5.4-34.9-0.6-4.4-1-8-1.3-10.5q-0.2-1.8-0.3-2.9-0.1-0.5-0.1-0.7 0-0.3 0-0.3z"/><path class="f" d="m83 303.8q0 0 0.3 0.7 0.2 0.8 0.6 2.1c0.6 1.9 1.3 4.5 2.3 7.7 1.9 6.5 4.6 15.4 8.1 25.2 3.4 9.8 6.8 18.5 9.3 24.8 1.3 3 2.3 5.6 3.1 7.4q0.5 1.3 0.8 2 0.3 0.7 0.3 0.7-0.1 0-0.4-0.6-0.3-0.8-0.9-2c-0.8-1.7-1.9-4.2-3.3-7.4-2.6-6.2-6-15-9.5-24.7-3.4-9.8-6.1-18.8-7.9-25.3-1-3.2-1.7-5.9-2.1-7.8q-0.3-1.3-0.5-2.1-0.2-0.7-0.2-0.7z"/><path class="f" d="m133.3 267.2c0 0.1-0.7 0.1-1.9 0.2-1.1 0.1-2.9 0.2-5 0.4-4.2 0.2-10.1 0.4-16.6 0.5-6.5 0-12.3-0.2-16.6-0.4q-3.2-0.1-5-0.3c-1.2-0.1-1.8-0.2-1.8-0.2 0 0 0.6 0 1.8 0q1.9 0.1 5.1 0.1c4.2 0.1 10.1 0.3 16.5 0.3 6.5-0.1 12.3-0.3 16.6-0.4q3-0.1 5-0.2c1.2 0 1.9 0 1.9 0z"/><path class="g" d="m101.9 184.1c-0.2-0.7 21.8 16.8 24.5 25.3 2.8 8.6 3.2 33.2 3.2 33.2l1.6 15.8-43.9 3.1-1.2-3.1-3.2-8.8-4.6-13.3c0 0-10.8-16.8-12.9-24-2.7-9 1.8-18.2 1.8-18.2l9.8-11.2z"/><path class="g" d="m77.1 183.7c0 0-2.5-4.6-1-6.5 1.2-1.5 22.3 0.4 26.7 1.3 2.5 0.5 0 6.2 0 6.2z"/><path  d="m89.7 205c1.9 4.7-0.8 19.5-1.1 23.1-0.4 3.5-1.5 6.9-2.4 10.3-0.5 1.6-1 3.4-0.1 4.8 1.4 2.2 5.1 1.6 6.9 3.5-3.3 1.6-7.1 2.1-10.8 1.3-0.6-0.2-1.2-0.3-1.7-0.8-0.3-0.4-0.4-1-0.5-1.4-1.1-5.2-1.5-10.6-0.5-15.8 1-5.2 5.9-17.6 10.1-20.9"/><path class="d" d="m90.5 211.5c0.1 0-0.5 2.5-2.1 5.1-1.6 2.6-3.4 4.3-3.5 4.2-0.1-0.1 1.5-2 3-4.5 1.5-2.6 2.5-4.8 2.6-4.8z"/><path class="d" d="m102.8 184.2c0 0-0.4 0.1-1 0.2q-1 0.2-2.8 0.5c-2.4 0.3-5.7 0.5-9.4 0.4-3.6-0.2-6.9-0.8-9.2-1.4-1.2-0.2-2.1-0.5-2.8-0.7-0.6-0.2-0.9-0.3-0.9-0.3 0-0.2 1.4 0.2 3.8 0.7 2.3 0.4 5.5 0.9 9.1 1.1 3.7 0.2 7 0 9.3-0.2 2.4-0.2 3.9-0.4 3.9-0.3z"/><path class="d" d="m118.3 226.6c-0.2-0.1 0.2-1.2 0.5-3.2 0.3-1.9 0.4-4.7-0.1-7.6-0.5-3-1.6-5.5-2.5-7.3-1-1.7-1.8-2.7-1.7-2.8q0.1 0 0.6 0.7c0.4 0.4 0.9 1.1 1.4 1.9 1.1 1.7 2.2 4.3 2.8 7.4 0.5 3 0.3 5.8-0.1 7.8-0.2 1-0.4 1.8-0.6 2.3-0.2 0.5-0.3 0.8-0.3 0.8z"/><path  d="m100.8 184.3c-1.4 1.6-3.6 2.2-5.7 2.4-5.7 0.7-11.8-0.7-16.9-3.4 3.4 0.9 7.5 1.3 11 1.6 3.4 0.3 8.4 0.6 11.6-0.6z"/><path  d="m113.9 231.6c4-4.1 5.9-10 5.1-15.7 0.6 2.2 0.8 3.4 0.8 5.7 0.1 2.3-0.1 4.5-1.5 6.4-1.3 1.8-2.1 2.9-4.4 3.6z"/><path class="h" d="m89.5 204.2c2.1 7.8-4.9 16.2-4.9 16.2l-3 25.9c7.9 0.9 36.9-2.9 36.9-2.9l2.2 12.9c0 0-13.2 4.5-25 7.2-11.8 2.7-28.3 2.9-28.3 2.9 0 0-3.7 0.5-6.2-5.9-2.5-6.4 3.8-59.6 6.1-63.1q0.2-0.2 0.5-0.6c3.7-4.8 10.8-5.4 15.5-1.4 2.6 2.1 5.3 5.1 6.2 8.8z"/><path class="h" d="m127.7 235.4l6.5-4.3 4.7-4c0 0 0.5 2-0.9 4.2-1.5 2.2-3.9 5.5-3.9 5.5z"/><path class="i" d="m137.4 232.8c0 0 0.3-0.5 0.8-1.4 0.5-0.9 0.9-2.5 0.4-4.2l0.5 0.1c-1.5 1.2-3 2.6-4.7 4q-0.2 0.1-0.4 0.3-2.1 1.4-4.1 2.7c-1.3 0.8-2.4 1.6-3.5 2.1-1.9 1.1-3.2 1.8-3.2 1.7-0.1 0 1.1-0.9 3.1-2.1 1-0.5 2.1-1.3 3.3-2.1q1.9-1.4 4.1-2.8 0.2-0.1 0.3-0.3 2.6-2.1 4.7-3.9l0.4-0.2v0.4c0.5 1.9-0.1 3.5-0.6 4.4-0.3 0.5-0.6 0.8-0.8 1q-0.3 0.3-0.3 0.3z"/><path class="d" d="m125.4 246.5c0.2-0.5 17.3-19.6 21.5-24.3 0.6-0.6 1.4-0.7 2.2-0.4 1 0.5 1.3 2 0.5 2.9l-21.9 24.3z"/><path class="h" d="m141.6 240.2c0 0 2.2 1.1 1.1 3.1l-0.7 1.3c0 0 2 1.7-0.6 3.4 0 0 1.2 1.6-1.4 3.5-2.5 1.9-5.8 2.9-6.6 3-0.7 0.2-6.6 0.6-7.1 0.6-0.6 0-7.6 1.7-7.6 1.7l-3.1-13c3.3-0.7 4.6-2.2 5.2-3.1 0.6-0.8 1.2-1.7 2-2.3 2.4-2 5.3-3.2 5.4-3.2 0.3-0.2 7.8 1.3 7.8 1.3l1.4-0.1c0 0 3.9-2.1 4.8-1.6 1 0.5 2 2.4 1.3 3.3-0.6 0.9-1.9 2.1-1.9 2.1z"/><path class="i" d="m138.3 242.2c0-0.2 0.8-0.6 1.7-1.1 1-0.6 1.7-1.2 1.8-1.1 0.1 0.1-0.4 0.9-1.5 1.5-1 0.6-1.9 0.8-2 0.7z"/><path class="i" d="m140.5 245.6c0-0.1 0.3-0.4 0.6-0.8 0.5-0.3 0.9-0.5 1-0.4 0.1 0.1-0.2 0.5-0.6 0.8-0.4 0.4-0.9 0.6-1 0.4z"/><path class="i" d="m139.8 248.5c0-0.1 0.4-0.3 0.9-0.5 0.5-0.2 1-0.3 1-0.2 0.1 0.1-0.2 0.5-0.8 0.7-0.6 0.3-1.1 0.1-1.1 0z"/><path class="i" d="m137.4 236.4c0 0.2-1.8 0.4-4 0.6-2.1 0.1-3.9 0.3-4 0.2 0-0.2 1.8-0.7 4-0.8 2.2-0.1 4-0.1 4 0z"/><path class="i" d="m82 246.1c0.1 0.1-1.3 1.7-2.9 3.7-1.8 2-3.3 3.5-3.4 3.4-0.1-0.1 1.2-1.8 2.9-3.8 1.8-2 3.2-3.4 3.4-3.3z"/><path class="d" d="m89.3 210.9c0 0 0.1-0.6 0.2-1.7 0.1-1 0.1-2.5-0.2-4.3-0.4-1.8-1.3-3.9-2.8-5.9-1.4-1.9-3.6-3.7-6.1-4.9-2.6-1.1-5.4-1.3-7.7-0.5-2.4 0.7-4.1 2.3-5 3.8-0.9 1.6-1.3 3.1-1.6 4.1-0.2 1.1-0.3 1.6-0.4 1.6q0 0 0-0.4c0.1-0.3 0.1-0.7 0.2-1.2 0.2-1.1 0.5-2.6 1.4-4.2q0.7-1.3 2-2.5c0.9-0.7 2-1.2 3.2-1.7 2.4-0.9 5.4-0.7 8.1 0.5 2.7 1.2 4.8 3.1 6.3 5.1 1.5 2.1 2.4 4.2 2.7 6.1 0.4 1.9 0.3 3.4 0.1 4.5q-0.1 0.7-0.3 1.2-0.1 0.4-0.1 0.4z"/><path class="c" d="m173.6 162.6v43.4c0 1.8-1.5 3.3-3.3 3.3h-16.3l-5.6 9.2-6.4-9.2h-16.5c-1.8 0-3.3-1.5-3.3-3.3v-43.4c0-1.9 1.5-3.3 3.3-3.3h44.8c1.8 0 3.3 1.4 3.3 3.3z"/><path class="d" d="m170.3 159.3c0 0 0.5-0.1 1.3 0.2 0.4 0.2 0.9 0.4 1.4 1 0.3 0.5 0.7 1.2 0.7 2 0 3.4 0.1 8.4 0.1 14.6 0 6.2 0 13.7 0 22.1q0 3.2 0.1 6.6c0 1.2-0.6 2.4-1.6 3.1q-0.7 0.6-1.7 0.7c-0.6 0-1.2 0-1.8 0q-7.1 0-14.8 0l0.3-0.2c-1.8 2.9-3.7 6.1-5.6 9.2l-0.3 0.3-0.2-0.3c-2-2.9-4.2-6-6.4-9.2l0.2 0.2q-5.6 0-11.6 0c-1.8 0-3.5 0-5.3 0-0.9-0.2-1.9-0.6-2.4-1.4-0.6-0.8-0.8-1.8-0.8-2.6q0-5.3 0-10.3 0-10.1 0-19.5 0.1-4.6 0.1-9 0-2.2 0-4.4c0-1.5 1.2-2.9 2.6-3.2 0.8-0.3 1.4-0.1 2.1-0.1q1 0 2 0 2 0 3.9 0 3.8 0 7.4 0c9.3 0 16.9 0 22.2 0.1 2.6 0 4.6 0 6 0q1 0 1.5 0 0.6 0.1 0.6 0.1 0 0-0.6 0-0.5 0-1.5 0-2.1 0-6 0.1c-5.3 0-12.9 0-22.2 0.1q-3.6 0-7.4 0-1.9 0-3.9 0-1 0-2 0c-0.7 0-1.3-0.1-2 0.1-1.2 0.3-2.2 1.5-2.2 2.8q0 2.2 0 4.4 0 4.4 0 9 0 9.4 0 19.5 0 5 0 10.3c0 0.8 0.1 1.6 0.6 2.3 0.5 0.6 1.3 1 2 1.1 1.7 0.1 3.6 0 5.3 0q6 0 11.6 0h0.2v0.2c2.3 3.1 4.4 6.2 6.5 9.1h-0.5c1.9-3.2 3.9-6.2 5.6-9.1l0.1-0.1h0.1q7.7 0 14.8 0 0.9 0 1.8 0c0.5-0.1 1-0.3 1.4-0.6 0.9-0.6 1.5-1.6 1.4-2.7q0-3.4 0-6.6c0-8.4 0.1-15.9 0.1-22.1 0-6.2 0-11.1 0.1-14.6 0-0.8-0.4-1.5-0.7-2-0.5-0.5-0.9-0.7-1.3-1-0.8-0.3-1.3-0.2-1.3-0.2z"/><path class="d" d="m155.4 190.9q0 0-0.3 0-0.3 0-0.9 0c-0.8 0-1.9 0.1-3.2 0.1-2.8 0-6.6 0-11 0h-0.1v-0.1q-0.1-0.8-0.2-1.8c-0.8-5.3-1.4-10-1.8-13.1v0.1c-1.2 0-2.2-0.1-2.9-0.1q-0.5 0-0.7 0-0.3 0-0.3 0 0 0 0.3 0 0.2 0 0.7 0c0.7 0 1.7 0 2.9-0.1h0.1v0.1c0.5 3.1 1.1 7.8 1.9 13.1q0.1 1 0.3 1.8l-0.2-0.1c4.4 0 8.2 0 11 0q2 0.1 3.2 0.1 0.6 0 0.9 0 0.3 0 0.3 0z"/><path class="d" d="m139.9 191.2q-0.1 0-0.1-0.2l-2.1-14.7h-3.4c-0.4-0.1-0.5-0.1-0.5-0.3 0-0.2 0.1-0.2 0.5-0.2h0.7 3c0.1 0 0.2 0 0.2 0.1l2.1 14.7 14.8 0.1c0.4 0 0.5 0 0.5 0.2q0 0 0 0c0 0.2-0.1 0.2-0.5 0.3h-0.9-3.2-11.1z"/><path class="d" d="m139.6 187.8q0 0 0.1-0.1 0.1 0 0.2 0 0.3 0 0.9 0c0.8 0 1.9 0 3.3 0 2.8 0 6.8 0 11.3-0.1l-0.1 0.1c0.4-1.9 0.7-4 1.1-6.1q0.3-1.6 0.6-3.2v0.1c-5.3 0-10 0-13.3 0-1.7 0-3.1 0-4 0q-0.6-0.1-1.1-0.1-0.1 0-0.3 0 0 0 0 0 0 0 0 0 0.2 0 0.3 0 0.5 0 1.1 0c0.9 0 2.3 0 4 0 3.3-0.1 8-0.1 13.3-0.1h0.2l-0.1 0.1q-0.2 1.6-0.5 3.3c-0.4 2.1-0.8 4.2-1.1 6.1h-0.1c-4.5 0-8.5 0-11.3 0-1.4 0-2.5 0-3.3 0q-0.6 0-0.9 0-0.1 0-0.2 0-0.1 0-0.1 0z"/><path class="d" d="m139.6 187.9c-0.1 0-0.2 0-0.2-0.1 0-0.2 0.2-0.2 0.3-0.2l1.1-0.1h3.3l11.1-0.1 1.5-8.7h-18.4c0 0-0.2 0-0.2-0.3 0-0.2 0.2-0.2 0.2-0.2h1.4 6.8l10.7-0.1q0 0 0.1 0.1 0 0.1 0 0.1l-1.6 9.6c0 0-0.1 0.1-0.2 0.1l-15.8-0.1q0 0-0.1 0z"/><path class="d" d="m143.9 195.1c0 0 0-0.1-0.1-0.3q-0.1-0.4-0.5-0.9c-0.4-0.2-0.9-0.3-1.5-0.1-0.4 0.1-0.9 0.7-0.9 1.3 0 0.6 0.5 1.2 0.9 1.4 0.6 0.2 1.1 0 1.5-0.2 0.3-0.3 0.5-0.6 0.5-0.8 0.1-0.2 0.1-0.4 0.1-0.4 0 0 0 0.2 0 0.4 0 0.2-0.2 0.6-0.6 0.9-0.3 0.3-0.9 0.4-1.5 0.2-0.6-0.1-1.1-0.7-1.1-1.5 0-0.7 0.5-1.3 1.1-1.5 0.6-0.3 1.2 0 1.5 0.2 0.4 0.3 0.5 0.7 0.6 0.9 0 0.3 0 0.4 0 0.4z"/><path fill-rule="evenodd" class="d" d="m142.1 196.9q-0.2 0-0.4-0.1c-0.6-0.2-1.2-0.8-1.2-1.7 0-0.8 0.6-1.5 1.2-1.7 0.7-0.3 1.4 0 1.7 0.3 0.5 0.4 0.6 0.8 0.7 1 0 0.1 0 0.3 0 0.4 0 0.2 0 0.3 0 0.4-0.1 0.2-0.2 0.7-0.6 1.1-0.3 0.2-0.8 0.4-1.4 0.3zm0.5-3q-0.3-0.1-0.6 0c-0.5 0.2-0.9 0.6-0.9 1.2 0 0.6 0.4 1 0.9 1.2 0.4 0.2 0.9 0 1.1-0.2 0.3-0.2 0.5-0.5 0.5-0.7q0-0.1 0.1-0.3 0 0 0 0 0 0 0-0.1-0.1 0-0.1-0.2c0-0.1-0.2-0.5-0.5-0.7-0.1-0.1-0.3-0.2-0.5-0.2z"/><path class="d" d="m153.8 195.1c-0.1 0-0.1-0.1-0.1-0.4-0.1-0.2-0.2-0.5-0.6-0.8-0.3-0.2-0.8-0.3-1.3-0.2-0.6 0.2-1 0.8-1 1.4 0 0.6 0.4 1.2 1 1.4 0.5 0.1 1 0 1.3-0.3 0.4-0.2 0.5-0.5 0.6-0.7 0-0.2 0-0.4 0.1-0.4 0 0 0 0.2 0 0.4-0.1 0.2-0.2 0.6-0.6 0.8-0.3 0.4-0.9 0.5-1.5 0.3-0.6-0.1-1.1-0.8-1.1-1.5 0-0.7 0.5-1.3 1.1-1.5 0.6-0.3 1.2-0.1 1.5 0.2 0.4 0.3 0.5 0.7 0.6 0.9q0 0.4 0 0.4z"/><path fill-rule="evenodd" class="d" d="m152 196.9q-0.2 0-0.4-0.1c-0.6-0.2-1.2-0.8-1.2-1.7 0-0.9 0.6-1.5 1.2-1.7 0.7-0.3 1.4-0.1 1.8 0.3 0.4 0.3 0.5 0.8 0.6 1 0 0.1 0 0.2 0 0.4 0 0.2 0 0.3 0 0.4-0.1 0.2-0.2 0.7-0.6 1-0.4 0.3-0.9 0.5-1.4 0.4zm0.4-3.1q-0.2 0-0.6 0.1c-0.4 0.2-0.8 0.6-0.8 1.2 0 0.6 0.4 1 0.8 1.1 0.5 0.3 1 0.1 1.2-0.1 0.3-0.2 0.5-0.5 0.5-0.7q0.1-0.1 0.1-0.3 0 0 0 0 0 0 0-0.1 0 0-0.1-0.2c0-0.2-0.2-0.5-0.5-0.7-0.1-0.1-0.3-0.2-0.6-0.3z"/><path class="g" d="m157.5 185.2c-2.8 0-5.1-2.4-5.1-5.2 0-2.9 2.3-5.2 5.1-5.2 2.9 0 5.2 2.3 5.2 5.2 0 2.8-2.3 5.2-5.2 5.2z"/><path class="e" d="m154.6 180.1l0.7-0.8 1.6 1.4 2.9-2.9 0.7 0.8-3.8 3.5z"/></svg>