<svg id="Layer_1" enable-background="new 0 0 512.002 512.002" height="512" viewBox="0 0 512.002 512.002" width="512" xmlns="http://www.w3.org/2000/svg"><g><path d="m481.721 428.344c2.923-5.906 4.567-12.553 4.567-19.577v-17.144c0-20.982-14.667-38.602-34.286-43.147v-21.14c0-16.542-13.458-30-30-30h-156.001v-35.024c-.528-13.268-19.476-13.258-20 0v35.024h-156.001c-16.542 0-30 13.458-30 30v21.14c-19.62 4.545-34.286 22.165-34.286 43.147v17.144c0 7.024 1.644 13.671 4.567 19.577-18.777 13.033-30.281 34.716-30.281 57.565v15.749c0 5.523 4.477 10 10 10h120c5.523 0 10-4.477 10-10v-15.749c0-22.849-11.504-44.532-30.281-57.564 2.923-5.906 4.567-12.553 4.567-19.578v-17.144c0-20.981-14.667-38.601-34.286-43.147v-21.14c0-5.514 4.486-10 10-10h156v31.14c-19.619 4.545-34.286 22.165-34.286 43.147v17.144c0 7.024 1.644 13.671 4.567 19.577-18.777 13.033-30.281 34.716-30.281 57.565v15.749c0 5.523 4.477 10 10 10h120c5.523 0 10-4.477 10-10v-15.749c0-22.85-11.503-44.532-30.281-57.565 2.923-5.906 4.567-12.553 4.567-19.577v-17.144c0-20.982-14.667-38.602-34.286-43.147v-31.14h156.001c5.514 0 10 4.486 10 10v21.14c-19.619 4.545-34.286 22.165-34.286 43.147v17.144c0 7.024 1.644 13.671 4.567 19.577-18.778 13.033-30.281 34.715-30.281 57.565v15.749c0 5.523 4.477 10 10 10h120c5.523 0 10-4.477 10-10v-15.749c.001-22.849-11.502-44.532-30.28-57.565zm-361.721 57.565v5.749h-100v-5.749c0-16.854 8.79-32.833 23.031-42.037 15.074 12.14 38.866 12.138 53.938 0 14.241 9.205 23.031 25.183 23.031 42.037zm-25.714-94.285v17.144c-1.338 32.226-47.246 32.202-48.572 0v-17.144c0-13.391 10.895-24.286 24.286-24.286 13.392 0 24.286 10.895 24.286 24.286zm211.715 94.285v5.749h-100.001v-5.749c0-16.854 8.79-32.832 23.032-42.037 15.074 12.139 38.866 12.137 53.937 0 14.242 9.205 23.032 25.183 23.032 42.037zm-25.714-94.285v17.144c-1.338 32.226-47.246 32.202-48.572 0v-17.144c0-13.391 10.895-24.286 24.286-24.286 13.391 0 24.286 10.895 24.286 24.286zm137.429 0c0-13.391 10.895-24.286 24.286-24.286 13.391 0 24.286 10.895 24.286 24.286v17.144c-1.338 32.226-47.246 32.202-48.572 0zm74.286 100.034h-100v-5.749c0-16.854 8.79-32.832 23.032-42.037 15.074 12.139 38.866 12.137 53.937 0 14.241 9.205 23.031 25.183 23.031 42.037z" fill="#020288"/><path clip-rule="evenodd" d="m256.001 269.656c74.355 0 135-60.644 135-135-7.627-179.109-262.4-179.056-270 .001 0 74.354 60.645 134.999 135 134.999z" fill="#a4fbc4" fill-rule="evenodd"/><path d="m295.72 124.197c2.923-5.906 4.567-12.553 4.567-19.577v-17.143c-2.439-58.765-86.154-58.72-88.572 0v17.143c0 7.024 1.644 13.671 4.567 19.577-18.778 13.033-30.282 34.716-30.282 57.565v15.749c0 5.523 4.477 10 10 10h120c5.523 0 10-4.477 10-10v-15.749c.001-22.849-11.502-44.532-30.28-57.565zm-64.005-36.72c0-13.391 10.895-24.286 24.286-24.286 13.391 0 24.286 10.895 24.286 24.286v17.143c-1.338 32.226-47.246 32.202-48.572 0zm74.286 100.034h-100.001v-5.749c0-16.854 8.79-32.832 23.032-42.037 15.074 12.139 38.866 12.137 53.937 0 14.241 9.205 23.031 25.183 23.031 42.037v5.749z" fill="#020288"/></g></svg>