<svg id="Layer_1" enable-background="new 0 0 512.001 512.001" height="512" viewBox="0 0 512.001 512.001" width="512" xmlns="http://www.w3.org/2000/svg"><g><g clip-rule="evenodd" fill="#e2c4ff" fill-rule="evenodd"><path d="m10 86h246.001v219.997h-246.001z"/><path d="m379.001 261.998h82.999v43.999h-82.999z"/></g><g fill="#020288"><path d="m482.001 35.999h-452.001c-16.542 0-30 13.458-30 30v300.001c0 16.542 13.458 30 30 30h174.406l-16.078 60.003h-12.328c-13.268.528-13.258 19.477 0 20h160c13.268-.528 13.258-19.477 0-20h-12.327l-16.077-60.003h174.406c16.542 0 30-13.458 30-30v-300.001c-.001-16.542-13.459-30-30.001-30zm-462.001 30c0-5.514 4.486-10 10-10h452.002c5.514 0 10 4.486 10 10v270h-472.002zm282.968 390.003h-93.934l16.077-60.002h61.779zm179.033-80.002h-452.001c-5.514 0-10-4.486-10-10v-10.001h472.001v10.001c0 5.514-4.485 10-10 10z"/><path d="m141.523 119.68c-2.362-2.362-5.746-3.39-9.023-2.736-3.276.652-6.01 2.896-7.288 5.983-13.948 33.694-21.39 48.597-44.4 71.607l-14.142 14.142c-11.697 11.697-11.697 30.729 0 42.427l7.071 7.071c11.128 11.607 31.299 11.607 42.427 0l7.07-7.071 21.214 21.215c3.906 3.905 10.237 3.905 14.143 0 3.905-3.905 3.905-10.237 0-14.143l-21.081-21.081c19.243-17.755 34.346-25.019 64.404-37.462 3.086-1.278 5.331-4.012 5.982-7.288.652-3.276-.375-6.661-2.736-9.023zm-39.498 124.352c-3.683 3.848-10.458 3.847-14.142 0l-7.071-7.071c-3.848-3.683-3.847-10.458 0-14.142l7.071-7.071 21.213 21.213zm21.348-21.079-21.481-21.481c17.837-19.3 26.617-35.48 36.002-57.136l42.615 42.615c-21.657 9.385-37.838 18.165-57.136 36.002z"/><path d="m462 76h-165.998c-13.268.528-13.258 19.477 0 20h165.998c13.268-.528 13.258-19.476 0-20z"/><path d="m462 120h-165.998c-13.268.528-13.258 19.477 0 20h165.998c13.268-.529 13.258-19.477 0-20z"/><path d="m296.002 183.999h82.999c13.268-.528 13.258-19.477 0-20h-82.999c-13.268.528-13.258 19.477 0 20z"/><path d="m462 207.999h-165.998c-13.268.528-13.258 19.477 0 20h165.998c13.268-.529 13.258-19.477 0-20z"/><path d="m339 251.998h-42.998c-13.268.528-13.258 19.477 0 20h42.998c13.268-.529 13.257-19.477 0-20z"/><path d="m339 295.997h-42.998c-13.268.528-13.258 19.477 0 20h42.998c13.268-.528 13.257-19.477 0-20z"/></g></g></svg>