<svg id="Layer_1" enable-background="new 0 0 511.971 511.971" height="512" viewBox="0 0 511.971 511.971" width="512" xmlns="http://www.w3.org/2000/svg"><g><g clip-rule="evenodd" fill="#a4fbc4" fill-rule="evenodd"><path d="m381.38 273.201-169.237-169.237c-4.753 12.889-17.544 40.084-24.52 54.322l139.436 139.436c14.237-6.976 41.432-19.769 54.321-24.521z"/><path d="m293.716 397.595c-10.15-10.151-18.603-3.107-28.754-13.258-9.785-9.785-4.242-28.475-21.343-34.616-12.849 9.613-24.16 19.13-33.055 28.025l-26.477 26.477 95.612 95.612c16.181 16.181 42.657 16.181 58.838 0 16.458-16.457 16.08-41.34-.185-57.605-10.15-10.15-21.228-5.732-31.378-15.882-10.151-10.15-3.108-18.603-13.258-28.753z"/></g><g fill="#020288"><path d="m259.704 19.705c-5.801-5.801-13.537-8.997-21.78-8.996-8.244 0-15.979 3.195-21.78 8.997-10.657 10.246-11.971 28.306-3.051 40.013-3.055 51.698-74.262 171.746-112.567 207.99l-58.838 58.838c-20.12 20.121-20.12 52.859 0 72.98l38.245 38.245c22.21 23.168 62.539 23.167 84.748 0l52.935-52.936c.006-.006.013-.013.019-.019 36.151-38.252 156.388-109.562 207.992-112.566 12.149 8.911 29.192 7.77 40.01-3.051 11.919-11.424 11.917-32.136.001-43.561zm-109.166 403.925c-15.566 15.567-40.896 15.567-56.463 0l-38.245-38.245c-12.323-12.323-12.323-32.374 0-44.696l51.767-51.768 88.825 88.825zm60.192-59.859-89.157-89.157c42.806-46.835 96.365-140.453 108.921-196.996l177.232 177.232c-56.542 12.556-150.16 66.114-196.996 108.921zm240.766-108.713c-4.21 4.211-11.064 4.211-15.276 0l-205.929-205.929c-.003-.003-.005-.005-.008-.008-4.155-3.981-4.154-11.294.002-15.273l-7.071-7.072 7.071 7.071c4.211-4.211 11.064-4.212 15.276 0l205.934 205.934c4.159 3.981 4.159 11.297.001 15.277z"/><path d="m107.88 348.045 29.419 29.419c9.741 9.014 23.154-4.411 14.143-14.143l-29.419-29.419c-9.757-9.008-23.148 4.398-14.143 14.143z"/><path d="m92.602 363.323c-9.756-9.008-23.147 4.397-14.143 14.143l29.419 29.419c9.741 9.014 23.154-4.411 14.143-14.143z"/><path d="m392.376 102.968c2.56 0 5.118-.977 7.071-2.929l21.87-21.871c3.905-3.905 3.905-10.237 0-14.142-3.906-3.905-10.236-3.906-14.143 0l-21.87 21.871c-3.905 3.905-3.905 10.237 0 14.142 1.954 1.953 4.512 2.929 7.072 2.929z"/><path d="m317.873 49.507c5.191 1.435 10.837-1.692 12.248-7.071l8.006-29.876c2.924-12.953-15.383-17.848-19.318-5.177l-8.006 29.876c-1.43 5.335 1.736 10.818 7.07 12.248z"/><path d="m485.031 154.289c-1.43-5.334-6.913-8.502-12.247-7.071l-29.876 8.005c-5.335 1.429-8.501 6.913-7.071 12.247 1.41 5.379 7.056 8.506 12.247 7.071l29.876-8.005c5.335-1.429 8.501-6.912 7.071-12.247z"/></g></g></svg>