<svg height="480pt" viewBox="-32 0 480 480.05218" width="480pt" xmlns="http://www.w3.org/2000/svg"><path d="m239.882812 134.820312-87.441406-99.105468c-6.179687-6.992188-15.066406-11-24.398437-11-9.335938 0-18.21875 4.007812-24.402344 11l-87.46875 99.105468c-5.25 5.949219-8.144531 13.609376-8.144531 21.542969v251.6875c0 35.347657 28.652344 64 64 64h112c35.34375 0 64-28.652343 64-64v-251.6875c0-7.933593-2.898438-15.59375-8.144532-21.542969zm-111.855468 33.230469c-17.675782 0-32-14.324219-32-32 0-17.671875 14.324218-32 32-32 17.671875 0 32 14.328125 32 32 0 17.675781-14.328125 32-32 32zm0 0" fill="#fd0"/><path d="m399.441406 312.050781-125.816406-217.984375c-3.964844-6.867187-10.296875-12.050781-17.816406-14.574218l-92-30.921876 76.105468 86.25c5.238282 5.953126 8.121094 13.613282 8.113282 21.542969v251.6875c-.003906 20.078125-9.449219 38.984375-25.503906 51.042969 18.367187 7.664062 39.261718 6.324219 56.503906-3.625l96.992187-56c30.601563-17.675781 41.089844-56.808594 23.421875-87.417969zm0 0" fill="#33b1a2"/><path d="m299.074219 138.195312-8.648438-14.941406c-11.566406 15.398438-25.957031 28.457032-42.398437 38.484375v18.648438c.550781-.308594 1.101562-.582031 1.65625-.902344 18.839844-10.640625 35.578125-24.632813 49.390625-41.289063zm0 0" fill="#2e9989"/><path d="m248.027344 152.050781h-.394532c.226563 1.429688.359376 2.867188.394532 4.3125v251.6875c-.003906 20.078125-9.449219 38.984375-25.503906 51.042969 18.367187 7.664062 39.261718 6.324219 56.503906-3.625l10.496094-6.066406zm0 0" fill="#2e9989"/><path d="m239.882812 134.820312-87.441406-99.105468c-6.179687-6.992188-15.066406-11-24.398437-11-9.335938 0-18.21875 4.007812-24.402344 11l-33.320313 37.769531c83.234376 10.433594 145.6875 81.1875 145.707032 165.070313v224.867187c19.792968-11.414063 31.992187-32.519531 32-55.371094v-251.6875c0-7.933593-2.898438-15.59375-8.144532-21.542969zm0 0" fill="#ffee80"/><path d="m240.027344 432.050781c-106.039063 0-192-85.960937-192-192v-141.335937l-31.855469 36.105468c-5.25 5.949219-8.144531 13.609376-8.144531 21.542969v251.6875c0 35.347657 28.652344 64 64 64h112c26.070312-.007812 49.527344-15.832031 59.304687-40zm0 0" fill="#ffac0d"/><path d="m158.5625 175.050781c-7.355469-1.011719-14.261719-4.121093-19.894531-8.949219-6.0625 2.324219-12.722657 2.578126-18.945313.726563.351563.703125.566406 1.488281.96875 2.167969 7.804688 12.21875 20.730469 20.242187 35.144532 21.824218 5.019531.84375 10.105468 1.257813 15.199218 1.238282 12.359375-.167969 24.636719-2.050782 36.480469-5.597656-1.699219-5.125-3.628906-10.140626-5.800781-15.039063-13.957032 4.285156-28.675782 5.523437-43.152344 3.628906zm0 0" fill="#ffac0d"/><path d="m247.539062 150.980469c-1.929687 1.214843-3.855468 2.398437-5.855468 3.582031-2.609375 1.515625-5.242188 2.914062-7.867188 4.265625-10.234375 5.285156-20.988281 9.507813-32.085937 12.59375 2.171875 4.894531 4.105469 9.90625 5.800781 15.039063 11.609375-3.363282 22.863281-7.851563 33.597656-13.410157 2.296875-1.183593 4.59375-2.398437 6.882813-3.726562v-12.960938c-.011719-1.804687-.167969-3.605469-.472657-5.382812zm0 0" fill="#fd0"/><path d="m128.027344 280.050781c8.835937 0 16 7.164063 16 16 0 4.417969 3.582031 8 8 8 4.417968 0 8-3.582031 8-8-.054688-14.546875-9.914063-27.226562-24-30.863281v-9.136719c0-4.417969-3.582032-8-8-8-4.417969 0-8 3.582031-8 8v9.136719c-15.585938 4.011719-25.753906 18.996094-23.722656 34.960938 2.03125 15.964843 15.628906 27.921874 31.722656 27.902343 8.835937 0 16 7.164063 16 16 0 8.839844-7.164063 16-16 16-8.835938 0-16-7.160156-16-16 0-4.417969-3.582032-8-8-8-4.417969 0-8 3.582031-8 8 .054687 14.546875 9.914062 27.230469 24 30.867188v9.132812c0 4.417969 3.582031 8 8 8 4.417968 0 8-3.582031 8-8v-9.132812c15.585937-4.011719 25.75-18.996094 23.71875-34.960938-2.03125-15.964843-15.625-27.925781-31.71875-27.90625-8.835938 0-16-7.160156-16-16 0-8.835937 7.164062-16 16-16zm0 0" fill="#ee1442"/><g fill="#052d25"><path d="m152.027344 200.050781h-48c-4.417969 0-8 3.582031-8 8s3.582031 8 8 8h48c4.417968 0 8-3.582031 8-8s-3.582032-8-8-8zm0 0"/><path d="m152.027344 424.050781h-48c-4.417969 0-8 3.582031-8 8s3.582031 8 8 8h48c4.417968 0 8-3.582031 8-8s-3.582032-8-8-8zm0 0"/><path d="m406.371094 308.050781-117.449219-203.429687c7.230469-7.175782 13.625-15.152344 19.054687-23.769532 13.335938-21.597656 15.722657-42.101562 6.707032-57.726562-17.945313-31.074219-74.609375-30.792969-129 .605469-7.226563 4.226562-14.171875 8.910156-20.800782 14.019531l-6.457031-7.296875c-7.695312-8.730469-18.765625-13.738281-30.398437-13.753906-11.636719.015625-22.707032 5.023437-30.402344 13.753906l-87.453125 99.078125c-6.542969 7.40625-10.1523438 16.949219-10.1445312 26.832031v251.6875c.046875 39.746094 32.2539062 71.953125 72.0000002 72h112c39.746094-.042969 71.953125-32.253906 72-72v-251.6875c-.019532-7.707031-2.242188-15.253906-6.402344-21.742187l.066406-.039063c9.570313-5.515625 18.65625-11.832031 27.160156-18.882812l115.664063 200.351562c15.457031 26.78125 6.285156 61.023438-20.488281 76.488281l-96.992188 56c-4.273437 2.433594-8.84375 4.292969-13.601562 5.539063-3.890625 1.023437-6.414063 4.777344-5.894532 8.765625.519532 3.988281 3.921876 6.972656 7.941407 6.96875.699219-.003906 1.390625-.097656 2.066406-.273438 6.101563-1.605468 11.96875-4.007812 17.445313-7.144531l96.992187-56c34.445313-19.871093 46.257813-63.898437 26.386719-98.34375zm-166.34375 100c-.035156 30.914063-25.089844 55.964844-56 56h-112c-30.914063-.035156-55.964844-25.085937-56-56v-251.6875c-.003906-5.984375 2.183594-11.761719 6.144531-16.246093l87.453125-99.105469c4.660156-5.28125 11.359375-8.304688 18.402344-8.3125 7.039062.007812 13.738281 3.035156 18.398437 8.3125l78.023438 88.433593c-17.835938 8.40625-37.328125 12.730469-57.046875 12.65625 2.078125-11.558593-1.140625-23.4375-8.773438-32.359374-7.628906-8.925782-18.863281-13.949219-30.601562-13.691407-.878906.03125-1.75.207031-2.570313.519531-4.03125-.496093-7.785156 2.144532-8.679687 6.105469-2.847656 10.933594-1.449219 22.535157 3.914062 32.480469 5.3125 8.796875 13.585938 15.417969 23.335938 18.671875-4.375 3.996094-10.078125 6.214844-16 6.222656-13.257813 0-24-10.742187-24-24 0-4.417969-3.582032-8-8-8-4.417969 0-8 3.582031-8 8-.023438 17.734375 11.652344 33.359375 28.664062 38.367188 17.011719 5.007812 35.289063-1.800781 44.878906-16.71875 3.148438.335937 6.3125.507812 9.480469.519531 22.335938-.671875 44.257813-6.191406 64.246094-16.175781 3.046875 4.15625 4.699219 9.167969 4.730469 14.320312zm-88-272c-.03125 1.171875-.152344 2.335938-.351563 3.488281-7.0625-1.832031-13.175781-6.253906-17.128906-12.382812-2.46875-4.503906-3.527344-9.640625-3.039063-14.753906 11.746094 1.722656 20.46875 11.777344 20.519532 23.648437zm89.65625-15.328125c-.800782.464844-1.601563.867188-2.402344 1.3125l-63.757812-72.261718c5.804687-4.425782 11.875-8.492188 18.175781-12.183594 45.0625-26.027344 94.136719-28.96875 107.136719-6.402344 5.941406 10.289062 3.644531 24.960938-6.457032 41.320312-3.996094 6.347657-8.605468 12.289063-13.761718 17.738282l-.078126-.144532c-4.9375-8.558593-12.832031-15.019531-22.199218-18.160156l-31.347656-10.5625c-2.730469-1.003906-5.792969-.445312-7.996094 1.460938s-3.195313 4.855468-2.589844 7.707031c.601562 2.847656 2.707031 5.144531 5.492188 5.992187l31.328124 10.527344c5.667969 1.910156 10.449219 5.820313 13.441407 11l2.039062 3.53125c-8.394531 7.199219-17.441406 13.605469-27.023437 19.125zm0 0"/><path d="m273.097656 322.453125c2.210938 3.824219 7.101563 5.136719 10.929688 2.925781l55.421875-32c2.496093-1.417968 4.039062-4.066406 4.046875-6.9375.007812-2.867187-1.527344-5.523437-4.015625-6.953125-2.488281-1.429687-5.554688-1.414062-8.03125.035157l-55.421875 32c-3.828125 2.210937-5.136719 7.101562-2.929688 10.929687zm0 0"/><path d="m283.226562 372.050781c2.207032 3.828125 7.101563 5.136719 10.925782 2.929688l69.28125-40c2.496094-1.417969 4.039062-4.066407 4.046875-6.9375.007812-2.871094-1.527344-5.523438-4.015625-6.953125-2.488282-1.429688-5.554688-1.417969-8.03125.035156l-69.28125 40c-3.824219 2.207031-5.136719 7.101562-2.925782 10.925781zm0 0"/><path d="m287.746094 275.84375c1.40625 0 2.785156-.371094 4-1.070312l27.710937-16c3.828125-2.210938 5.140625-7.105469 2.933594-10.933594-2.210937-3.828125-7.105469-5.140625-10.933594-2.933594l-27.710937 16c-3.144532 1.808594-4.679688 5.503906-3.742188 9.007812.9375 3.503907 4.117188 5.9375 7.742188 5.929688zm0 0"/></g></svg>