<svg id="Layer_1" enable-background="new 0 0 512.003 512.003" height="512" viewBox="0 0 512.003 512.003" width="512" xmlns="http://www.w3.org/2000/svg"><g><g clip-rule="evenodd" fill="#ffbebc" fill-rule="evenodd"><path d="m282.596 222.003c-16.569 0-31.569 6.716-42.426 17.574-37.47 37.021-10.921 102.586 42.427 102.426 79.585-3.159 79.568-116.851-.001-120z"/><path d="m183.601 183.008c86.372-87.428 239.372-25.482 238.994 98.997.001 77.318-62.679 139.998-139.999 139.998-124.489.36-186.423-152.627-98.995-238.995zm98.995-81.005c-49.706 0-94.706 20.147-127.279 52.72-112.409 111.065-32.764 307.758 127.281 307.279 238.756-9.475 238.704-350.552-.002-359.999z"/></g><path d="m282.596 52.003c-59.821 0-114.382 22.956-155.335 60.522l-15.338-15.338 8.264-28.024c1.036-3.513.069-7.311-2.521-9.9l-56.333-56.333c-2.495-2.495-6.12-3.492-9.539-2.62-3.419.871-6.126 3.479-7.125 6.862l-8.404 28.5-28.5 8.404c-3.384.998-5.992 3.705-6.862 7.125-.871 3.419.125 7.043 2.62 9.539l56.333 56.333c2.593 2.601 6.427 3.552 9.899 2.521l28.025-8.264 15.338 15.339c-134.414 144.451-29.874 385.997 169.481 385.333 305.114-12.626 305.047-447.408-.003-459.999zm-253.028 6.496 17.578-5.184c3.256-.96 5.803-3.507 6.763-6.763l5.184-17.578 40.23 40.23-6.724 22.801-22.801 6.724zm253.028 433.504c-181.644.601-277.219-219.133-155.328-351.185l70.83 70.83c-59.412 70.157-8.305 180.762 84.499 180.354 60.653.001 109.999-49.345 109.999-109.999.395-92.808-110.198-143.912-180.355-84.498l-70.83-70.83c132.118-121.92 351.801-26.248 351.185 155.331.001 115.791-94.205 209.997-210 209.997zm-7.071-202.929c9.741 9.014 23.154-4.411 14.143-14.143l-63.219-63.219c57.715-46.92 146.505-4.763 146.147 70.292.001 49.625-40.374 89.999-89.999 89.999-75.057.348-117.212-88.433-70.29-146.148z" fill="#020288"/></g></svg>