<svg id="Line" height="512" viewBox="0 0 64 64" width="512" xmlns="http://www.w3.org/2000/svg"><g fill="#c19ff9"><path d="m41.457 52.63672a5.1653 5.1653 0 0 0 -5.16015-5.15918h-1.51658a5.1653 5.1653 0 0 0 -5.16015 5.15918v.38769h11.83688z"/><path d="m22.5 59.002 36-.002v-25h-36zm25.46191-19.86528h6.46094a1 1 0 0 1 0 2h-6.46094a1 1 0 0 1 0-2zm0 6.89746h6.46094a1 1 0 0 1 0 2h-6.46094a1 1 0 0 1 0-2zm0 6.89648h6.46094a1 1 0 0 1 0 2h-6.46094a1 1 0 0 1 0-2zm-20.34179-.29394a7.16513 7.16513 0 0 1 4.59417-6.67572 4.45978 4.45978 0 1 1 6.64826-.00012 7.165 7.165 0 0 1 4.59445 6.67584v.38769a2.0026 2.0026 0 0 1 -2 2h-11.83688a2.0026 2.0026 0 0 1 -2-2z"/><path d="m35.53809 45.47754a2.45948 2.45948 0 1 0 -2.459-2.46 2.46273 2.46273 0 0 0 2.459 2.46z"/><path d="m22.5 23h36v9h-36z"/><path d="m59.5 19h-38a3.00328 3.00328 0 0 0 -3 3v38a3.00328 3.00328 0 0 0 3 3h38a3.00328 3.00328 0 0 0 3-3v-38a3.00328 3.00328 0 0 0 -3-3zm1 40a2.0026 2.0026 0 0 1 -2 2h-36a2.0026 2.0026 0 0 1 -2-2v-36a2.00229 2.00229 0 0 1 2-2h36a2.00229 2.00229 0 0 1 2 2z"/></g><path d="m23.7998 27.84717v7.15283a3.00328 3.00328 0 0 0 3 3h12.4004a3.00328 3.00328 0 0 0 3-3v-7.15283a3.00328 3.00328 0 0 0 -3-3h-12.4004a3.00328 3.00328 0 0 0 -3 3zm16.4004 7.15283a1.00068 1.00068 0 0 1 -1 1h-12.4004a1.00068 1.00068 0 0 1 -1-1c.03025-7.545-.06384-7.12635.06824-7.49l6.4718 5.69317a.99663.99663 0 0 0 1.32032 0l6.47184-5.69317c.13211.36383.03788-.07084.0682 7.49zm-12.05793-8.15283h9.71546l-4.85773 4.27344z" fill="#151a6a"/><path d="m19.61426 8.21045a1.002 1.002 0 0 0 -1.40332.17578l-6.19629 7.96631-2.21485-2.95264a.9999.9999 0 0 0 -1.5996 1.2002l3 4a.99957.99957 0 0 0 1.58886.01367l7-9a.99968.99968 0 0 0 -.1748-1.40332z" fill="#151a6a"/><path d="m49.5 9h-23.8515a12.49209 12.49209 0 1 0 -12.1485 16.97467v22.02533a3.00328 3.00328 0 0 0 3 3h33a3.00328 3.00328 0 0 0 3-3v-36a3.00328 3.00328 0 0 0 -3-3zm0 2a1.001 1.001 0 0 1 1 1v30h-35v-16.09888a12.49432 12.49432 0 0 0 10.74805-14.90112zm-46 2.5a10.5 10.5 0 1 1 10.5 10.5 10.5118 10.5118 0 0 1 -10.5-10.5zm46 35.5h-33a1.00067 1.00067 0 0 1 -1-1v-4h35v4a1.00067 1.00067 0 0 1 -1 1z" fill="#151a6a"/></svg>